<svg width="31" height="31" viewBox="0 0 31 31" fill="none" xmlns="http://www.w3.org/2000/svg">
<g id="American logo" clip-path="url(#clip0_409_1074)">
<g id="XMLID_1_">
<path id="XMLID_20_" d="M30.3724 0.943359H0.549316V30.876H30.3724V20.9988C30.4884 20.8277 30.5493 20.608 30.5493 20.3391C30.5493 20.0338 30.4884 19.8445 30.3724 19.6852" fill="url(#paint0_radial_409_1074)"/>
<path id="Vector" d="M3.23701 13.8942L2.66279 12.4956L2.09443 13.8942M15.8763 13.3382C15.7603 13.4056 15.6261 13.4114 15.4608 13.4114H14.4466V12.6298H15.479C15.6255 12.6298 15.7784 12.6356 15.8763 12.6907C15.9864 12.7394 16.0532 12.8495 16.0532 13.0024C16.0532 13.1548 15.9858 13.2831 15.8763 13.3382ZM23.1454 13.8942L22.5653 12.4956L21.9911 13.8942H23.1454ZM9.60264 15.4089H8.74131L8.73545 12.6597L7.51963 15.4089H6.78662L5.56494 12.6597V15.4089H3.86045L3.53643 14.6272H1.79561L1.47158 15.4089H0.561621L2.05811 11.9026H3.30439L4.73408 15.2196V11.9026H6.10225L7.20205 14.2792L8.20986 11.9026H9.60264V15.4089ZM13.0233 15.4089H10.2255V11.9026H13.0233V12.6356H11.0622V13.2649H12.9806V13.9798H11.0687V14.6823H13.0298V15.4095H13.0233V15.4089ZM16.9755 12.8431C16.9755 13.405 16.6028 13.6921 16.3831 13.7776C16.5665 13.845 16.7253 13.9733 16.7985 14.0706C16.9146 14.2476 16.9392 14.4005 16.9392 14.7122V15.4024H16.096L16.0901 14.9624C16.0901 14.7485 16.1083 14.4491 15.956 14.278C15.8335 14.1556 15.6442 14.1251 15.3448 14.1251H14.4466V15.4019H13.6099V11.9015H15.5399C15.9677 11.9015 16.2853 11.9138 16.5542 12.0661C16.8167 12.2261 16.9755 12.4522 16.9755 12.8431ZM18.3138 15.4089H17.4583V11.9026H18.3138V15.4089ZM28.2401 15.4089H27.0548L25.4663 12.7763V15.4089H23.7618L23.4378 14.6272H21.697L21.3794 15.4089H20.3956C19.986 15.4089 19.4733 15.3175 19.1798 15.0239C18.8868 14.7245 18.7339 14.3214 18.7339 13.6862C18.7339 13.1671 18.8253 12.6907 19.1856 12.3181C19.4546 12.0368 19.8823 11.9085 20.4565 11.9085H21.2692V12.6597H20.4753C20.17 12.6597 19.9989 12.7024 19.8278 12.8671C19.6872 13.0136 19.5894 13.2948 19.5894 13.661C19.5894 14.0396 19.6626 14.3085 19.8214 14.4854C19.9497 14.6261 20.1882 14.6688 20.4079 14.6688H20.7864L21.9653 11.9138H23.2239L24.6413 15.2308V11.9015H25.9181L27.3905 14.3448V11.9015H28.2519L28.2401 15.4089ZM0.549316 16.0933H1.979L2.30303 15.3116H3.02373L3.34775 16.0933H6.16377V15.5009L6.41396 16.0997H7.87412L8.12432 15.495V16.0997H15.1245L15.1187 14.8229H15.2528C15.3507 14.8288 15.3753 14.8353 15.3753 14.994V16.1056H18.9976V15.8062C19.2905 15.9649 19.7429 16.1056 20.3417 16.1056H21.8628L22.1868 15.3239H22.9075L23.2251 16.1056H26.1636V15.3667L26.6095 16.1056H28.986V11.2124H26.6587V11.7925L26.3347 11.2124H23.9464V11.7925L23.647 11.2124H20.4214C19.8841 11.2124 19.4071 11.2856 19.0228 11.4995V11.2124H16.7933V11.4995C16.5489 11.2856 16.219 11.2124 15.8464 11.2124H7.70244L7.15869 12.4769L6.59678 11.2124H4.03154V11.7925L3.75029 11.2124H1.56357L0.549316 13.5274V16.0933Z" fill="white"/>
<path id="Vector_2" d="M30.3725 18.6832H28.8455C28.6926 18.6832 28.5889 18.6891 28.5033 18.7441C28.4178 18.7992 28.3809 18.8848 28.3809 18.9943C28.3809 19.1285 28.4541 19.2141 28.5643 19.2568C28.6498 19.2873 28.7477 19.2996 28.8883 19.2996L29.34 19.3119C29.7982 19.3242 30.1035 19.4033 30.2928 19.5932C30.3297 19.6178 30.3479 19.6482 30.3725 19.6787M30.3725 20.9988C30.1709 21.2982 29.7736 21.4447 29.2363 21.4447H27.6174V20.6936H29.2299C29.3887 20.6936 29.5047 20.6754 29.5721 20.608C29.633 20.5529 29.6699 20.4738 29.6699 20.3818C29.6699 20.2781 29.6271 20.1984 29.5662 20.1498C29.5053 20.0947 29.4197 20.0701 29.2732 20.0701C28.4852 20.0455 27.502 20.0947 27.502 18.9826C27.502 18.4758 27.826 17.9379 28.7055 17.9379H30.373V17.2412H28.8215C28.351 17.2412 28.0152 17.3514 27.7709 17.5283V17.2412H25.474C25.1072 17.2412 24.6736 17.3326 24.4721 17.5283V17.2412H20.3729V17.5283C20.0488 17.2898 19.4992 17.2412 19.2426 17.2412H16.5426V17.5283C16.2859 17.2781 15.7117 17.2412 15.3637 17.2412H12.3396L11.6494 17.9924L11.002 17.2412H6.48145V22.1344H10.9164L11.6312 21.3709L12.3033 22.1344H15.0338V20.9859H15.3027C15.6631 20.9918 16.0908 20.9801 16.4693 20.8148V22.1344H18.7234V20.8576H18.8336C18.9742 20.8576 18.9865 20.8635 18.9865 21.0041V22.1344H25.8344C26.268 22.1344 26.7262 22.0242 26.977 21.8227V22.1344H29.152C29.6037 22.1344 30.0437 22.0734 30.3801 21.9082V20.9982H30.3725V20.9988ZM27.0309 19.5937C27.1955 19.7648 27.2811 19.9787 27.2811 20.3391C27.2811 21.0967 26.8105 21.4447 25.9615 21.4447H24.3303V20.6936H25.9551C26.1139 20.6936 26.224 20.6754 26.2973 20.608C26.3523 20.5529 26.3951 20.4738 26.3951 20.3818C26.3951 20.2781 26.3523 20.1984 26.2914 20.1498C26.2305 20.0947 26.1385 20.0701 25.992 20.0701C25.2104 20.0455 24.2266 20.0947 24.2266 18.9826C24.2266 18.4758 24.5441 17.9379 25.4236 17.9379H27.1035V18.6832H25.5643C25.4113 18.6832 25.3141 18.6891 25.2285 18.7441C25.1371 18.7992 25.1002 18.8848 25.1002 18.9943C25.1002 19.1285 25.1799 19.2141 25.2836 19.2568C25.3691 19.2873 25.467 19.2996 25.6076 19.2996L26.0594 19.3119C26.5299 19.3248 26.8416 19.4039 27.0309 19.5937ZM19.4682 19.3799C19.358 19.4473 19.218 19.4531 19.0527 19.4531H18.0326V18.665H19.065C19.2115 18.665 19.3645 18.6709 19.4623 18.726C19.5725 18.7811 19.6334 18.8906 19.6334 19.0436C19.6393 19.1906 19.5719 19.3125 19.4682 19.3799ZM19.975 19.8135C20.1643 19.8809 20.3172 20.0027 20.3846 20.1064C20.5006 20.2775 20.5187 20.4363 20.5252 20.748V21.4447H19.682V21.0047C19.682 20.7908 19.7002 20.4791 19.5479 20.3203C19.4254 20.192 19.2361 20.1674 18.9309 20.1674H18.0326V21.45H17.1895V17.9437H19.126C19.5473 17.9437 19.859 17.9619 20.1338 18.1084C20.3963 18.2672 20.5674 18.4869 20.5674 18.89C20.568 19.4408 20.1953 19.7279 19.975 19.8135ZM21.032 17.9379H23.8299V18.665H21.8687V19.3002H23.7871V20.015H21.8687V20.7117L23.8299 20.7176V21.4447H21.032V17.9379ZM15.3754 19.5568H14.2943V18.665H15.3877C15.693 18.665 15.901 18.7875 15.901 19.0928C15.901 19.398 15.6988 19.5568 15.3754 19.5568ZM13.457 21.1266L12.168 19.6969L13.457 18.3164V21.1266ZM10.1342 20.7117H8.07578V20.015H9.91445V19.3002H8.07578V18.665H10.177L11.0934 19.6852L10.1342 20.7117ZM16.7986 19.0928C16.7986 20.0701 16.0715 20.2658 15.3385 20.2658H14.2937V21.4447H12.6625L11.6301 20.284L10.5549 21.4447H7.23789V17.9385H10.61L11.6424 19.0869L12.7111 17.9385H15.3865C16.0533 17.9379 16.7986 18.1213 16.7986 19.0928Z" fill="white"/>
</g>
</g>
<defs>
<radialGradient id="paint0_radial_409_1074" cx="0" cy="0" r="1" gradientUnits="userSpaceOnUse" gradientTransform="translate(5.812 6.16946) scale(27.9878)">
<stop stop-color="#9DD5F6"/>
<stop offset="0.0711" stop-color="#98D3F5"/>
<stop offset="0.1575" stop-color="#89CEF3"/>
<stop offset="0.2516" stop-color="#70C6EF"/>
<stop offset="0.3514" stop-color="#4EBBEA"/>
<stop offset="0.4546" stop-color="#23ADE3"/>
<stop offset="0.5" stop-color="#0DA6E0"/>
<stop offset="1" stop-color="#2E77BC"/>
</radialGradient>
<clipPath id="clip0_409_1074">
<rect width="30" height="30" fill="white" transform="translate(0.429199 0.874756)"/>
</clipPath>
</defs>
</svg>
