<svg width="25" height="25" viewBox="0 0 25 25" fill="none" xmlns="http://www.w3.org/2000/svg">
<g id="captive_portal">
<mask id="mask0_409_1017" style="mask-type:alpha" maskUnits="userSpaceOnUse" x="0" y="0" width="25" height="25">
<rect id="Bounding box" x="0.71167" y="0.36499" width="24" height="24" fill="#D9D9D9"/>
</mask>
<g mask="url(#mask0_409_1017)">
<path id="captive_portal_2" d="M10.1117 19.915C9.81167 19.365 9.54917 18.7942 9.32417 18.2025C9.09917 17.6108 8.91167 16.9983 8.76167 16.365H5.81167C6.295 17.1983 6.89917 17.9233 7.62417 18.54C8.34917 19.1567 9.17834 19.615 10.1117 19.915ZM4.96167 14.365H8.36167C8.31167 14.0317 8.27417 13.7025 8.24917 13.3775C8.22417 13.0525 8.21167 12.715 8.21167 12.365C8.21167 12.015 8.22417 11.6775 8.24917 11.3525C8.27417 11.0275 8.31167 10.6983 8.36167 10.365H4.96167C4.87834 10.6983 4.81584 11.0275 4.77417 11.3525C4.7325 11.6775 4.71167 12.015 4.71167 12.365C4.71167 12.715 4.7325 13.0525 4.77417 13.3775C4.81584 13.7025 4.87834 14.0317 4.96167 14.365ZM5.81167 8.36499H8.76167C8.91167 7.73166 9.09917 7.11916 9.32417 6.52749C9.54917 5.93582 9.81167 5.36499 10.1117 4.81499C9.17834 5.11499 8.34917 5.57332 7.62417 6.18999C6.89917 6.80666 6.295 7.53166 5.81167 8.36499ZM10.8117 8.36499H14.6117C14.4117 7.63166 14.1533 6.93999 13.8367 6.28999C13.52 5.63999 13.145 5.01499 12.7117 4.41499C12.2783 5.01499 11.9033 5.63999 11.5867 6.28999C11.27 6.93999 11.0117 7.63166 10.8117 8.36499ZM16.6617 8.36499H19.6117C19.1283 7.53166 18.5242 6.80666 17.7992 6.18999C17.0742 5.57332 16.245 5.11499 15.3117 4.81499C15.6117 5.36499 15.8742 5.93582 16.0992 6.52749C16.3242 7.11916 16.5117 7.73166 16.6617 8.36499ZM12.7117 22.365C11.345 22.365 10.0533 22.1025 8.83667 21.5775C7.62 21.0525 6.5575 20.3358 5.64917 19.4275C4.74084 18.5192 4.02417 17.4567 3.49917 16.24C2.97417 15.0233 2.71167 13.7317 2.71167 12.365C2.71167 10.9817 2.97417 9.68582 3.49917 8.47749C4.02417 7.26916 4.74084 6.21082 5.64917 5.30249C6.5575 4.39416 7.62 3.67749 8.83667 3.15249C10.0533 2.62749 11.345 2.36499 12.7117 2.36499C14.095 2.36499 15.3908 2.62749 16.5992 3.15249C17.8075 3.67749 18.8658 4.39416 19.7742 5.30249C20.6825 6.21082 21.3992 7.26916 21.9242 8.47749C22.4492 9.68582 22.7117 10.9817 22.7117 12.365C22.7117 12.5317 22.7075 12.6983 22.6992 12.865C22.6908 13.0317 22.6783 13.1983 22.6617 13.365H20.6367C20.67 13.1983 20.6908 13.0358 20.6992 12.8775C20.7075 12.7192 20.7117 12.5483 20.7117 12.365C20.7117 12.015 20.6908 11.6775 20.6492 11.3525C20.6075 11.0275 20.545 10.6983 20.4617 10.365H17.0617C17.1117 10.6983 17.1492 11.0275 17.1742 11.3525C17.1992 11.6775 17.2117 12.015 17.2117 12.365V12.8775C17.2117 13.0358 17.2033 13.1983 17.1867 13.365H15.1867C15.2033 13.1983 15.2117 13.0358 15.2117 12.8775V12.365C15.2117 12.015 15.1992 11.6775 15.1742 11.3525C15.1492 11.0275 15.1117 10.6983 15.0617 10.365H10.3617C10.3117 10.6983 10.2742 11.0275 10.2492 11.3525C10.2242 11.6775 10.2117 12.015 10.2117 12.365C10.2117 12.715 10.2242 13.0525 10.2492 13.3775C10.2742 13.7025 10.3117 14.0317 10.3617 14.365H13.7117V16.365H10.8117C11.0117 17.0983 11.27 17.79 11.5867 18.44C11.9033 19.09 12.2783 19.715 12.7117 20.315C12.895 20.0483 13.07 19.7775 13.2367 19.5025C13.4033 19.2275 13.5617 18.9483 13.7117 18.665V22.315C13.545 22.3317 13.3825 22.3442 13.2242 22.3525C13.0658 22.3608 12.895 22.365 12.7117 22.365ZM20.6617 21.74L17.7117 18.79V21.015H15.7117V15.365H21.3617V17.365H19.1117L22.0617 20.315L20.6617 21.74Z" fill="white"/>
</g>
</g>
</svg>
