<svg width="25" height="25" viewBox="0 0 25 25" fill="none" xmlns="http://www.w3.org/2000/svg">
<g id="call">
<mask id="mask0_409_1006" style="mask-type:alpha" maskUnits="userSpaceOnUse" x="0" y="0" width="25" height="25">
<rect id="Bounding box" x="0.71167" y="0.36499" width="24" height="24" fill="#D9D9D9"/>
</mask>
<g mask="url(#mask0_409_1006)">
<path id="call_2" d="M20.6617 21.365C18.5117 21.365 16.4158 20.8858 14.3742 19.9275C12.3325 18.9692 10.5242 17.7025 8.94917 16.1275C7.37417 14.5525 6.1075 12.7442 5.14917 10.7025C4.19084 8.66082 3.71167 6.56499 3.71167 4.41499C3.71167 4.11499 3.81167 3.86499 4.01167 3.66499C4.21167 3.46499 4.46167 3.36499 4.76167 3.36499H8.81167C9.045 3.36499 9.25334 3.43999 9.43667 3.58999C9.62 3.73999 9.72834 3.93166 9.76167 4.16499L10.4117 7.66499C10.445 7.89832 10.4408 8.11082 10.3992 8.30249C10.3575 8.49416 10.2617 8.66499 10.1117 8.81499L7.68667 11.265C8.38667 12.465 9.26584 13.59 10.3242 14.64C11.3825 15.69 12.545 16.5983 13.8117 17.365L16.1617 15.015C16.3117 14.865 16.5075 14.7525 16.7492 14.6775C16.9908 14.6025 17.2283 14.5817 17.4617 14.615L20.9117 15.315C21.145 15.365 21.3367 15.4775 21.4867 15.6525C21.6367 15.8275 21.7117 16.0317 21.7117 16.265V20.315C21.7117 20.615 21.6117 20.865 21.4117 21.065C21.2117 21.265 20.9617 21.365 20.6617 21.365ZM6.73667 9.36499L8.38667 7.71499L7.96167 5.36499H5.73667C5.82 6.04832 5.93667 6.72332 6.08667 7.38999C6.23667 8.05666 6.45334 8.71499 6.73667 9.36499ZM15.6867 18.315C16.3367 18.5983 16.9992 18.8233 17.6742 18.99C18.3492 19.1567 19.0283 19.265 19.7117 19.315V17.115L17.3617 16.64L15.6867 18.315Z" fill="white"/>
</g>
</g>
</svg>
