<svg width="61" height="23" viewBox="0 0 61 23" fill="none" xmlns="http://www.w3.org/2000/svg">
<g id="elo logo" clip-path="url(#clip0_409_1069)">
<path id="Vector" d="M9.4105 5.72274C10.0498 5.5065 10.7361 5.39368 11.4507 5.39368C14.572 5.39368 17.1763 7.61248 17.7686 10.5552L22.1874 9.65265C21.172 4.65095 16.7532 0.880859 11.4507 0.880859C10.2379 0.880859 9.07204 1.0783 7.98145 1.44496L9.4105 5.72274Z" fill="#FFF100"/>
<path id="Vector_2" d="M4.19243 20.0509L7.18217 16.6663C5.84713 15.4817 5.01038 13.7611 5.01038 11.8338C5.01038 9.91584 5.84713 8.18593 7.18217 7.01071L4.19243 3.6355C1.92662 5.64746 0.497559 8.5714 0.497559 11.8432C0.497559 15.1056 1.92662 18.0388 4.19243 20.0509Z" fill="#00A3DF"/>
<path id="Vector_3" d="M17.7685 13.1313C17.1668 16.0741 14.5719 18.2835 11.4506 18.2835C10.736 18.2835 10.0497 18.1707 9.40098 17.9544L7.97192 22.2322C9.06252 22.5988 10.2377 22.7963 11.4506 22.7963C16.7531 22.7963 21.1719 19.0356 22.1873 14.0339L17.7685 13.1313Z" fill="#EE4023"/>
<path id="Vector_4" d="M36.9104 16.1588C36.1772 16.8734 35.19 17.3058 34.0993 17.287C33.3472 17.2776 32.6516 17.052 32.0685 16.6759L30.6019 19.0076C31.6078 19.6374 32.783 20.0135 34.0618 20.0323C35.9138 20.0605 37.606 19.3272 38.8379 18.1331L36.9104 16.1588ZM34.2592 6.65366C30.5737 6.59725 27.5276 9.54939 27.4711 13.2349C27.4523 14.6169 27.8472 15.9143 28.5523 16.9861L40.6617 11.8057C39.9849 8.90067 37.3901 6.71007 34.2593 6.65366M30.2447 13.7613C30.2259 13.6108 30.2165 13.451 30.2165 13.2912C30.2541 11.1194 32.0405 9.38006 34.2122 9.41767C35.3968 9.43647 36.4497 9.97237 37.1549 10.8185L30.2447 13.7613ZM44.4695 3.64502V16.5536L46.7072 17.4843L45.6447 20.0322L43.4259 19.1108C42.9277 18.8946 42.5891 18.5655 42.3353 18.1895C42.0909 17.8134 41.9028 17.2868 41.9028 16.5912V3.64502H44.4695ZM52.5456 9.6151C52.9406 9.48348 53.3542 9.41767 53.7962 9.41767C55.7046 9.41767 57.2842 10.7715 57.6509 12.5672L60.3491 12.0125C59.7286 8.95698 57.0304 6.66297 53.7962 6.66297C53.0534 6.66297 52.3389 6.78519 51.6808 7.00143L52.5456 9.6151ZM49.3584 18.3493L51.1823 16.2903C50.3645 15.5664 49.8567 14.5134 49.8567 13.3382C49.8567 12.163 50.3738 11.11 51.1823 10.3954L49.3584 8.33647C47.9764 9.55869 47.102 11.3544 47.102 13.3476C47.102 15.3407 47.9764 17.1271 49.3584 18.3493ZM57.6509 14.1372C57.2842 15.9331 55.6952 17.2868 53.7962 17.2868C53.3637 17.2868 52.9406 17.2116 52.5456 17.0801L51.6714 19.6937C52.3389 19.9193 53.0533 20.0416 53.7962 20.0416C57.0304 20.0416 59.7286 17.7476 60.3491 14.692L57.6509 14.1372Z" fill="black"/>
</g>
<defs>
<clipPath id="clip0_409_1069">
<rect width="59.9829" height="22" fill="white" transform="translate(0.446289 0.874756)"/>
</clipPath>
</defs>
</svg>
