<svg width="54" height="24" viewBox="0 0 54 24" fill="none" xmlns="http://www.w3.org/2000/svg">
<g id="Hipercard_logo logo" clip-path="url(#clip0_409_1079)">
<path id="path2997" d="M22.4988 23.3608L0.452637 23.3687V23.3156C0.452637 23.2864 0.487798 23.0972 0.530773 22.8951C0.573747 22.6931 0.640559 22.3717 0.679243 22.1809C0.717924 21.9901 0.784064 21.6659 0.826216 21.4605C0.868368 21.255 0.938404 20.9128 0.98185 20.7C1.0253 20.4872 1.09336 20.151 1.1331 19.9529C1.17283 19.7548 1.23918 19.4306 1.28053 19.2325C1.32188 19.0344 1.39237 18.6922 1.43719 18.4721C1.482 18.2519 1.55012 17.9157 1.58857 17.725C1.62702 17.5342 1.68812 17.24 1.72435 17.0712C1.76058 16.9025 1.80676 16.6744 1.82698 16.5643C1.84721 16.4542 1.91264 16.13 1.97239 15.8439C2.03214 15.5577 2.09811 15.2335 2.11898 15.1235C2.13986 15.0134 2.20612 14.6892 2.26623 14.403C2.32635 14.1169 2.39239 13.7927 2.41298 13.6826C2.43359 13.5726 2.49999 13.2484 2.56055 12.9622C2.62112 12.676 2.68648 12.3578 2.70581 12.2551C2.72514 12.1524 2.77808 11.8882 2.82345 11.6681C2.86883 11.448 2.95469 11.0337 3.01425 10.7476C3.07381 10.4614 3.1757 9.96313 3.24065 9.64027C3.30561 9.31742 3.38323 8.9332 3.41314 8.78645C3.44306 8.63969 3.49715 8.37554 3.53335 8.19944C3.56956 8.02334 3.6353 7.70515 3.67944 7.49236C3.72358 7.27957 3.79541 6.93137 3.83905 6.71858C3.88269 6.50579 3.94994 6.1756 3.98849 5.98482C4.02704 5.79404 4.09284 5.47586 4.13471 5.27774C4.17658 5.07963 4.24859 4.73143 4.29475 4.50396C4.3409 4.2765 4.41821 3.92829 4.46655 3.73018C4.5149 3.53206 4.58324 3.29193 4.61843 3.19654C4.65362 3.10115 4.75077 2.89437 4.83432 2.73703L4.98624 2.45095L5.12434 2.27009C5.20029 2.17062 5.3359 2.01343 5.42569 1.92078C5.51548 1.82814 5.66699 1.68873 5.76238 1.61099C5.85777 1.53325 5.99585 1.42833 6.06923 1.37785C6.1426 1.32735 6.28669 1.23896 6.38941 1.18142C6.49214 1.12387 6.63622 1.04851 6.7096 1.01396C6.78297 0.979398 6.93306 0.916328 7.04312 0.873801C7.15319 0.831273 7.36331 0.759989 7.51006 0.715391C7.65681 0.670794 7.93228 0.603572 8.12221 0.56601C8.31215 0.528447 8.61232 0.478277 8.78927 0.454521L9.11099 0.411327L31.1704 0.402929L53.2299 0.394531V0.447559C53.2299 0.476724 53.1945 0.665919 53.1512 0.867993C53.108 1.07007 53.0357 1.4155 52.9906 1.63563C52.9455 1.85576 52.8797 2.17394 52.8444 2.34271C52.809 2.51147 52.7421 2.83566 52.6957 3.06313C52.6493 3.29059 52.5778 3.63879 52.5369 3.83691C52.496 4.03502 52.4298 4.35921 52.3898 4.55733C52.3498 4.75544 52.2832 5.07963 52.2418 5.27774C52.2005 5.47586 52.1363 5.78804 52.0993 5.97148C52.0623 6.15492 51.9952 6.48511 51.9503 6.70524C51.9054 6.92537 51.8333 7.27357 51.7901 7.47902C51.7468 7.68447 51.6809 8.00266 51.6437 8.1861C51.6064 8.36954 51.5393 8.69973 51.4946 8.91986C51.4499 9.13998 51.3779 9.48819 51.3347 9.69364C51.2914 9.89909 51.227 10.2113 51.1915 10.3874C51.156 10.5635 51.0891 10.8937 51.043 11.1211C50.9968 11.3486 50.9295 11.6788 50.8934 11.8549C50.8573 12.031 50.7929 12.3432 50.7502 12.5486C50.7075 12.7541 50.6345 13.1083 50.588 13.3357C50.5414 13.5632 50.4749 13.8874 50.44 14.0562C50.4051 14.2249 50.3399 14.5431 50.295 14.7632C50.2501 14.9834 50.1787 15.3316 50.1363 15.537C50.0939 15.7425 50.0274 16.0667 49.9886 16.2574C49.9497 16.4482 49.8821 16.7784 49.8384 16.9912C49.7947 17.204 49.7233 17.5522 49.6797 17.765C49.6362 17.9778 49.5709 18.296 49.5347 18.4721C49.4985 18.6482 49.4323 18.9724 49.3875 19.1925C49.3428 19.4126 49.2701 19.7595 49.2259 19.9633L49.1456 20.334L49.0499 20.5904C48.9972 20.7314 48.9181 20.9188 48.874 21.0069C48.8299 21.0949 48.7401 21.2503 48.6745 21.3521C48.6088 21.4539 48.5173 21.5844 48.4711 21.642C48.4249 21.6997 48.2858 21.8485 48.1621 21.9727L47.937 22.1986L47.7205 22.3525C47.6014 22.4371 47.4731 22.5232 47.4354 22.5437C47.3977 22.5643 47.2542 22.6375 47.1165 22.7065C46.9789 22.7754 46.7844 22.8632 46.6843 22.9015C46.5843 22.9398 46.3862 23.005 46.2441 23.0464C46.102 23.0878 45.9497 23.1285 45.9057 23.1369C45.8616 23.1454 45.7088 23.177 45.566 23.2072C45.4233 23.2374 45.1351 23.2826 44.9257 23.3076L44.5449 23.353L22.4988 23.3608ZM14.6551 17.6583H15.2288L15.245 17.616C15.2539 17.5928 15.2612 17.5383 15.2612 17.4948C15.2612 17.4513 15.2801 17.2932 15.3032 17.1434C15.3264 16.9937 15.3806 16.649 15.4238 16.3775C15.467 16.106 15.5316 15.6978 15.5675 15.4703C15.6033 15.2429 15.6471 14.9517 15.6647 14.8233C15.6823 14.6949 15.7038 14.5898 15.7125 14.5898C15.7212 14.5898 15.7582 14.6465 15.7949 14.7159L15.8616 14.842L16.0095 14.991L16.1574 15.1401L16.3395 15.2129L16.5215 15.2858L16.7385 15.314L16.9555 15.3421L17.231 15.3252L17.5064 15.3083L17.8046 15.2311L18.1029 15.1539L18.263 15.0809C18.351 15.0407 18.5071 14.953 18.6098 14.8861L18.7966 14.7645L18.9708 14.5904C19.0665 14.4947 19.2016 14.3412 19.2709 14.2493C19.3402 14.1574 19.397 14.0755 19.397 14.0673C19.397 14.0591 19.431 14.0022 19.4726 13.9409C19.5143 13.8796 19.5994 13.7093 19.6619 13.5625C19.7244 13.4158 19.8221 13.1516 19.879 12.9755L19.9824 12.6554L20.0358 12.378C20.0652 12.2255 20.103 11.9733 20.1199 11.8177L20.1505 11.5347L20.1328 11.2946L20.1151 11.0544L20.0594 10.8143L20.0038 10.5741L19.9136 10.3944L19.8235 10.2146L19.6494 10.03L19.4753 9.84546L19.2694 9.73901L19.0634 9.63256L18.8366 9.57826L18.6098 9.52396L18.383 9.50731L18.1562 9.49066L17.9036 9.5197L17.6509 9.54873L17.4447 9.60138L17.2385 9.65403L17.0594 9.73694C16.9609 9.78255 16.8175 9.86 16.7408 9.90906C16.6641 9.95812 16.585 10.0146 16.565 10.0345C16.545 10.0544 16.4971 10.0914 16.4586 10.1165L16.3885 10.1623L16.4375 9.92799C16.4645 9.7991 16.487 9.67863 16.4875 9.66028L16.4886 9.62693H15.9994H15.5102L15.4245 10.1672C15.3773 10.4644 15.3028 10.9237 15.2589 11.1878C15.2151 11.452 15.1489 11.8482 15.112 12.0683C15.075 12.2885 15.009 12.6787 14.9654 12.9355C14.9217 13.1923 14.8496 13.6006 14.8051 13.8427C14.7606 14.0849 14.6953 14.4391 14.6601 14.6298C14.6249 14.8206 14.5587 15.1808 14.5129 15.4303C14.4672 15.6798 14.3936 16.076 14.3495 16.3108C14.3054 16.5456 14.2336 16.9178 14.1899 17.138C14.1463 17.3581 14.104 17.5652 14.096 17.5982L14.0814 17.6583H14.6551ZM17.1249 14.5733L16.9022 14.5867L16.7566 14.561L16.6109 14.5353L16.4631 14.4678L16.3152 14.4002L16.2118 14.3016L16.1085 14.2029L16.0489 14.0695C16.0161 13.9961 15.974 13.8715 15.9553 13.7925L15.9213 13.6489L15.9349 13.419L15.9485 13.189L16.0173 12.8288C16.0551 12.6307 16.123 12.2585 16.1681 12.0016C16.2133 11.7448 16.2817 11.3685 16.3201 11.1654L16.39 10.7962L16.5429 10.6689C16.627 10.5989 16.7603 10.505 16.839 10.4604L16.9822 10.3791L17.169 10.3213L17.3558 10.2635L17.5959 10.2494L17.836 10.2353L18.0316 10.277L18.2271 10.3187L18.3651 10.3822L18.5031 10.4458L18.6188 10.5621L18.7345 10.6784L18.797 10.8016C18.8313 10.8694 18.8795 11.002 18.9041 11.0964L18.9489 11.2679L18.9352 11.7748L18.9214 12.2818L18.8529 12.5815C18.8152 12.7463 18.7435 12.9984 18.6935 13.1418L18.6026 13.4025L18.4912 13.6135C18.43 13.7295 18.3356 13.8864 18.2814 13.962C18.2272 14.0376 18.1409 14.1356 18.0895 14.1797C18.0382 14.2238 17.9521 14.2927 17.8984 14.3329L17.8006 14.4059L17.5742 14.4829L17.3477 14.5599L17.1249 14.5733ZM22.6655 15.3068L22.959 15.3102L23.2525 15.2834C23.4139 15.2687 23.6781 15.238 23.8395 15.2153C24.001 15.1926 24.2798 15.1417 24.4592 15.1022L24.7854 15.0304L24.8017 14.9102C24.8106 14.844 24.8472 14.6472 24.8831 14.4727L24.9482 14.1554L24.9339 14.141L24.9195 14.1266L24.8198 14.1748C24.7649 14.2013 24.5941 14.2645 24.4401 14.3152L24.1602 14.4075L23.8665 14.4644L23.5727 14.5213L23.1058 14.5222L22.6388 14.5231L22.4787 14.472C22.3907 14.4438 22.2612 14.3924 22.1909 14.3576L22.0632 14.2944L21.9579 14.1992L21.8525 14.104L21.7702 13.9603L21.688 13.8165L21.6364 13.6363L21.5849 13.456L21.5845 13.1224L21.5842 12.7888L21.6299 12.4911L21.6757 12.1935L22.0772 12.1748L22.4787 12.156L23.963 12.1655L25.4472 12.1751L25.492 11.985C25.5167 11.8804 25.5543 11.6643 25.5757 11.5047L25.6147 11.2145L25.6155 10.9704L25.6163 10.7263L25.5741 10.5441L25.5318 10.3619L25.4619 10.2412C25.4235 10.1748 25.3558 10.0787 25.3114 10.0275C25.2671 9.97629 25.1879 9.90413 25.1355 9.86711C25.0831 9.8301 24.9802 9.76789 24.9068 9.72888L24.7734 9.65795L24.5403 9.60177L24.3072 9.54559L24.02 9.51813L23.7328 9.49067L23.466 9.50804L23.1992 9.52542L22.879 9.5869L22.5588 9.64839L22.3587 9.7284C22.2486 9.7724 22.0805 9.85265 21.9851 9.90673C21.8897 9.96081 21.7577 10.0488 21.6916 10.1023C21.6256 10.1559 21.5112 10.2599 21.4375 10.3335C21.3638 10.4072 21.2548 10.5394 21.1952 10.6275C21.1357 10.7155 21.0444 10.8716 20.9924 10.9744C20.9403 11.0771 20.8725 11.2212 20.8417 11.2946C20.8109 11.3679 20.7549 11.518 20.7172 11.6281C20.6796 11.7381 20.6204 11.9483 20.5857 12.095C20.551 12.2418 20.5035 12.4833 20.4801 12.6318L20.4376 12.9019L20.438 13.2989L20.4383 13.696L20.4789 13.8694C20.5012 13.9648 20.5439 14.1089 20.5737 14.1896C20.6035 14.2703 20.6586 14.3904 20.6962 14.4564C20.7338 14.5224 20.814 14.6288 20.8745 14.6927C20.935 14.7566 21.0446 14.8536 21.118 14.9082C21.1913 14.9628 21.322 15.0396 21.4082 15.0789L21.5651 15.1503L21.7838 15.2032C21.9041 15.2323 22.0857 15.2667 22.1873 15.2798C22.2889 15.2928 22.5041 15.305 22.6655 15.3068ZM23.1681 11.548C22.4294 11.548 21.825 11.5428 21.825 11.5363C21.825 11.5298 21.8565 11.4368 21.8951 11.3295C21.9336 11.2222 22.0012 11.0626 22.0454 10.9747L22.1257 10.8149L22.3022 10.6394L22.4787 10.4638L22.6522 10.3809C22.7476 10.3353 22.8736 10.2856 22.9323 10.2705C22.991 10.2554 23.1591 10.2354 23.3059 10.2261L23.5727 10.209L23.7776 10.2353L23.9825 10.2617L24.1314 10.3298L24.2803 10.398L24.362 10.4861C24.4069 10.5345 24.4605 10.6058 24.481 10.6446L24.5183 10.715L24.5429 10.8714L24.5675 11.0277L24.5393 11.2879L24.5112 11.548H23.1681ZM31.1506 15.307L31.4443 15.3102L31.7776 15.2707C31.961 15.249 32.205 15.213 32.32 15.1907C32.4349 15.1684 32.6211 15.1242 32.7336 15.0924C32.8461 15.0606 32.9479 15.0263 32.9598 15.016C32.9717 15.0058 33.0035 14.8847 33.0304 14.7469C33.0574 14.6092 33.0913 14.4244 33.1059 14.3363C33.1204 14.2483 33.128 14.1715 33.1226 14.1658C33.1172 14.16 33.0976 14.1674 33.0789 14.1823C33.0602 14.1971 32.9292 14.2522 32.7879 14.3047L32.531 14.4002L32.1651 14.471L31.7993 14.5419L31.4882 14.5313L31.1771 14.5207L31.0004 14.4594L30.8237 14.3981L30.6872 14.2787L30.5507 14.1593L30.4601 13.9943L30.3695 13.8294L30.3264 13.6087L30.2833 13.388L30.2835 13.1017L30.2838 12.8154L30.3362 12.4686L30.3886 12.1217L30.4441 11.9349C30.4746 11.8322 30.5091 11.7121 30.5208 11.6681C30.5325 11.6241 30.5814 11.498 30.6295 11.388C30.6777 11.2779 30.7635 11.1078 30.8203 11.0099L30.9236 10.832L31.0505 10.7006L31.1773 10.5692L31.3116 10.4858L31.446 10.4025L31.6185 10.3494C31.7134 10.3202 31.881 10.2822 31.9911 10.2651L32.1912 10.2339L32.4847 10.2486L32.7782 10.2633L33.1251 10.3328L33.472 10.4022L33.613 10.4548C33.6906 10.4838 33.7575 10.5074 33.7617 10.5074C33.7658 10.5074 33.7844 10.4084 33.803 10.2873C33.8216 10.1662 33.8547 9.96705 33.8766 9.84467C33.8985 9.72229 33.9111 9.61689 33.9046 9.61046C33.8982 9.60402 33.7939 9.58747 33.6729 9.57367C33.5519 9.55987 33.2231 9.53536 32.9422 9.51922L32.4314 9.48986L32.0712 9.5175L31.7109 9.54514L31.4441 9.60121L31.1773 9.65729L31.0055 9.72601C30.911 9.76382 30.7725 9.83203 30.6978 9.8776C30.6232 9.92317 30.5281 9.98447 30.4866 10.0138C30.4451 10.0432 30.3192 10.1577 30.2068 10.2683L30.0024 10.4694L29.8883 10.6365C29.8256 10.7284 29.717 10.9201 29.6471 11.0625L29.52 11.3212L29.4226 11.6014C29.369 11.7555 29.2941 12.0076 29.2563 12.1617L29.1875 12.4419L29.1625 12.6954L29.1375 12.9489L29.1378 13.2824L29.138 13.6159L29.1632 13.8099L29.1884 14.004L29.2683 14.2036L29.3483 14.4031L29.4406 14.5474L29.5329 14.6917L29.6797 14.8362L29.8264 14.9806L29.9817 15.0627L30.137 15.1448L30.341 15.2014C30.4531 15.2326 30.6152 15.2684 30.7012 15.2809C30.7871 15.2935 30.9895 15.3052 31.151 15.307H31.1506ZM35.5396 15.2971L35.8999 15.2868L36.1267 15.2287L36.3535 15.1707L36.5002 15.1013C36.5809 15.0632 36.713 14.9878 36.7937 14.9339C36.8744 14.88 36.9994 14.7775 37.0713 14.7062C37.1433 14.6348 37.2501 14.5131 37.3085 14.4357C37.367 14.3582 37.4184 14.2984 37.4227 14.3027C37.427 14.307 37.4136 14.4304 37.3928 14.5769C37.372 14.7234 37.3548 14.9183 37.3545 15.0101L37.354 15.1768H37.8437H38.3334L38.3484 14.7966L38.3634 14.4164L38.4333 13.9228C38.4717 13.6513 38.5338 13.249 38.5712 13.0289C38.6086 12.8088 38.6737 12.4366 38.7158 12.2018C38.7579 11.967 38.8246 11.6007 38.864 11.388L38.9356 11.0011L38.938 10.6669L38.9404 10.3327L38.8649 10.1782L38.7893 10.0238L38.6868 9.92542L38.5844 9.82705L38.4161 9.7418L38.2479 9.65655L37.9972 9.60078L37.7465 9.54501L37.4012 9.51874L37.056 9.49247L36.6114 9.51999C36.3668 9.53512 36.0226 9.56499 35.8465 9.58638L35.5263 9.62527L35.3081 9.62609L35.0899 9.62692L35.0582 9.78034C35.0407 9.86473 34.9922 10.0652 34.9503 10.2259C34.9085 10.3865 34.8781 10.5218 34.8829 10.5266C34.8876 10.5313 35.0043 10.5048 35.1422 10.4677C35.2801 10.4306 35.573 10.3695 35.7932 10.3321L36.1934 10.2639L36.5536 10.2491L36.9138 10.2342L37.1458 10.2749L37.3778 10.3155L37.5327 10.392L37.6876 10.4684L37.7743 10.5977L37.861 10.7269L37.8598 10.9307L37.8586 11.1345L37.8126 11.3581L37.7666 11.5817L36.8066 11.5852L35.8465 11.5886L35.5323 11.6748C35.3595 11.7222 35.1681 11.7851 35.107 11.8146C35.046 11.8441 34.9849 11.8682 34.9713 11.8682C34.9577 11.8682 34.8549 11.9252 34.7428 11.9949L34.5391 12.1216L34.3786 12.2817C34.2904 12.3698 34.1776 12.5019 34.1281 12.5753C34.0785 12.6487 33.998 12.802 33.9492 12.9159L33.8603 13.1232L33.8196 13.3562L33.7788 13.5892V13.8337V14.0781L33.8178 14.2817L33.8567 14.4852L33.929 14.618C33.9687 14.691 34.0416 14.7979 34.091 14.8556L34.1808 14.9606L34.3404 15.0575L34.5 15.1545L34.6827 15.2061C34.7831 15.2346 34.9361 15.269 35.0225 15.2826L35.1796 15.3074L35.5398 15.2971L35.5396 15.2971ZM35.8732 14.551L35.6597 14.5621L35.5183 14.5261C35.4406 14.5063 35.3226 14.4622 35.2561 14.428L35.1353 14.3659L35.0694 14.2875C35.0331 14.2444 34.9777 14.1597 34.9463 14.0993L34.8891 13.9895L34.8779 13.733L34.8667 13.4765L34.9119 13.3209C34.9368 13.2353 34.9951 13.0868 35.0416 12.9909L35.1261 12.8165L35.2878 12.6559L35.4496 12.4953L35.6213 12.4126L35.7931 12.3298L36.0066 12.2791L36.22 12.2284H36.8871H37.5541L37.5963 12.2459L37.6385 12.2633L37.603 12.4727C37.5835 12.5878 37.5369 12.7961 37.4995 12.9355C37.4621 13.0749 37.396 13.2799 37.3527 13.3909C37.3094 13.502 37.274 13.6002 37.274 13.6092C37.274 13.6181 37.2301 13.699 37.1765 13.789L37.0791 13.9526L36.9191 14.1111C36.8311 14.1983 36.7494 14.2696 36.7376 14.2696C36.7257 14.2696 36.6718 14.2997 36.6177 14.3364L36.5193 14.4031L36.303 14.4715L36.0866 14.5399L35.8732 14.551ZM44.5582 15.3067L44.8117 15.3098L45.0518 15.2709C45.1839 15.2494 45.352 15.2149 45.4254 15.1941C45.4987 15.1734 45.6308 15.1195 45.7189 15.0744L45.879 14.9923L46.0167 14.8711L46.1544 14.7499L46.2995 14.5564C46.3792 14.4501 46.4515 14.345 46.46 14.323L46.4755 14.283L46.462 14.4164C46.4546 14.4898 46.438 14.6098 46.4251 14.6832C46.4122 14.7566 46.3937 14.8977 46.384 14.9967L46.3664 15.1768H46.8898H47.4132V14.9967V14.8166L47.4929 14.1362C47.5368 13.762 47.6017 13.2637 47.6371 13.0289C47.6725 12.7941 47.7271 12.4579 47.7585 12.2818C47.7899 12.1057 47.8455 11.7875 47.8821 11.5747C47.9186 11.3619 47.9847 10.9897 48.0288 10.7476C48.073 10.5054 48.1436 10.1212 48.1858 9.89375C48.228 9.66629 48.2937 9.31208 48.3316 9.10663C48.3696 8.90118 48.4376 8.54097 48.4828 8.30617C48.528 8.07136 48.594 7.74117 48.6295 7.57241C48.665 7.40364 48.694 7.25656 48.6939 7.24555V7.22554H48.1228H47.5518L47.5349 7.3923C47.5257 7.48402 47.4819 7.7872 47.4378 8.06603C47.3936 8.34486 47.3217 8.78911 47.2778 9.05327C47.234 9.31742 47.1918 9.57357 47.184 9.62249L47.1698 9.71144L47.1247 9.69227C47.0999 9.68173 46.9656 9.64447 46.8261 9.60946L46.5727 9.54581L46.2258 9.5188L45.8789 9.49179L45.5854 9.51913L45.2919 9.54648L45.0251 9.61393L44.7583 9.68137L44.5048 9.805L44.2513 9.92863L44.0645 10.0669L43.8778 10.2052L43.7165 10.3781C43.6277 10.4733 43.4996 10.6306 43.4317 10.7278L43.3082 10.9044L43.1631 11.2062C43.0834 11.3722 42.9863 11.5921 42.9474 11.6948C42.9085 11.7975 42.84 12.0252 42.795 12.2008L42.7134 12.5201L42.6731 12.9346L42.6329 13.3491L42.6631 13.6826L42.6933 14.0161L42.729 14.1362C42.7487 14.2023 42.7901 14.3199 42.8211 14.3977L42.8774 14.5391L42.9802 14.6781L43.0829 14.8172L43.2002 14.9132L43.3174 15.0093L43.4775 15.0888C43.5656 15.1325 43.7133 15.189 43.8058 15.2143C43.8983 15.2397 44.0483 15.2701 44.1393 15.2819C44.2303 15.2938 44.4187 15.3049 44.5582 15.3067H44.5582ZM45.0132 14.5496L44.8117 14.5603L44.6757 14.5359C44.6009 14.5224 44.4812 14.4863 44.4098 14.4557L44.2798 14.4L44.1704 14.3103L44.0611 14.2207L43.9798 14.0651L43.8985 13.9094L43.8615 13.736L43.8244 13.5625L43.8276 13.2157L43.8307 12.8688L43.8737 12.562L43.9167 12.2551L43.9836 12.0417C44.0204 11.9243 44.0506 11.8135 44.0508 11.7955C44.0511 11.7775 44.0874 11.6815 44.1315 11.5821C44.1757 11.4826 44.2494 11.3293 44.2954 11.2412C44.3414 11.1532 44.4274 11.0159 44.4865 10.9362C44.5456 10.8564 44.6509 10.7364 44.7204 10.6693C44.79 10.6023 44.9007 10.5144 44.9664 10.474L45.0858 10.4005L45.2956 10.3279L45.5054 10.2553L45.9457 10.255H46.3859L46.6394 10.3253C46.7788 10.364 46.9269 10.4088 46.9684 10.425L47.0438 10.4543L47.0291 10.5276C47.021 10.5679 46.9893 10.7449 46.9586 10.921C46.928 11.0971 46.8676 11.4333 46.8244 11.6681C46.7812 11.9029 46.7149 12.2571 46.677 12.4552C46.6391 12.6534 46.5842 12.9055 46.555 13.0156C46.5258 13.1256 46.4846 13.2781 46.4635 13.3543C46.4423 13.4306 46.392 13.5627 46.3516 13.6478C46.3112 13.733 46.2405 13.8567 46.1945 13.9228C46.1485 13.9888 46.0707 14.0803 46.0216 14.126C45.9725 14.1718 45.8663 14.2531 45.7856 14.3068L45.6388 14.4043L45.4267 14.4716L45.2146 14.5389L45.0132 14.5496ZM5.74363 15.1768H6.39194L6.43846 14.89C6.46404 14.7322 6.514 14.429 6.54949 14.2163C6.58497 14.0035 6.65101 13.6072 6.69625 13.3357C6.74149 13.0643 6.8093 12.662 6.84694 12.4419C6.88459 12.2218 6.9444 11.8803 6.97986 11.6831C7.01532 11.4859 7.05106 11.3178 7.05929 11.3095L7.07424 11.2946H8.81748H10.5607L10.5801 11.3139L10.5994 11.3333L10.5692 11.4873C10.5526 11.5721 10.5034 11.8335 10.4599 12.0683C10.4164 12.3032 10.3433 12.6994 10.2975 12.9489C10.2516 13.1983 10.1853 13.5525 10.1501 13.736C10.1149 13.9194 10.0437 14.3036 9.99188 14.5898C9.94004 14.876 9.89773 15.1251 9.89787 15.1435L9.89813 15.1768H10.5491H11.2001L11.2289 15.0101C11.2447 14.9183 11.2702 14.7532 11.2855 14.6432C11.3008 14.5331 11.3378 14.299 11.3676 14.1229C11.3974 13.9468 11.4569 13.5986 11.4999 13.3491C11.5429 13.0996 11.6148 12.6734 11.6597 12.4019C11.7047 12.1304 11.7713 11.7342 11.8079 11.5214C11.8444 11.3086 11.9096 10.9484 11.9526 10.7209C11.9956 10.4934 12.0673 10.1092 12.1119 9.86707C12.1565 9.62493 12.2233 9.25872 12.2604 9.05327C12.2974 8.84781 12.365 8.4756 12.4105 8.22612C12.456 7.97664 12.5135 7.68547 12.5382 7.57908L12.5832 7.38563H11.9241H11.265L11.2471 7.51237C11.2372 7.58208 11.2054 7.77719 11.1763 7.94596C11.1472 8.11472 11.0944 8.4149 11.0588 8.61301C11.0233 8.81113 10.9583 9.18935 10.9145 9.4535C10.8706 9.71765 10.8148 10.0673 10.7903 10.2306L10.7459 10.5273L9.7783 10.5469L8.81074 10.5665L8.00032 10.5473C7.55459 10.5367 7.18743 10.5259 7.18441 10.5234C7.18139 10.5208 7.19657 10.4171 7.21814 10.2929C7.23972 10.1688 7.28053 9.95312 7.30884 9.81371C7.33716 9.67429 7.39083 9.39813 7.42811 9.20002C7.4654 9.0019 7.50763 8.75576 7.52196 8.65303C7.5363 8.55031 7.56634 8.37921 7.58872 8.27281C7.6111 8.16642 7.65358 7.94231 7.68312 7.77479C7.71265 7.60727 7.74412 7.45118 7.75304 7.42792L7.76927 7.38563H7.11548H6.46168L6.41981 7.6191C6.39677 7.74751 6.36606 7.93062 6.35156 8.026C6.33706 8.12139 6.28836 8.42757 6.24334 8.7064C6.19833 8.98523 6.13187 9.39947 6.09567 9.62693C6.05946 9.8544 5.99352 10.2686 5.94914 10.5475C5.90476 10.8263 5.83153 11.2585 5.78641 11.508C5.74129 11.7575 5.67597 12.1117 5.64125 12.2951C5.60653 12.4786 5.54036 12.8268 5.49422 13.0689C5.44807 13.3111 5.38074 13.6533 5.34461 13.8294C5.30847 14.0055 5.26852 14.2096 5.25583 14.283C5.24314 14.3563 5.20184 14.568 5.16405 14.7533C5.12627 14.9385 5.09535 15.1096 5.09535 15.1335V15.1768H5.74363ZM12.9206 15.1768H13.4945L13.5107 15.1346C13.5196 15.1114 13.5269 15.0505 13.5269 14.9993C13.5269 14.9481 13.563 14.6819 13.6071 14.4078C13.6512 14.1337 13.7241 13.6873 13.769 13.4158C13.814 13.1443 13.8804 12.7481 13.9166 12.5353C13.9528 12.3225 14.0172 11.9683 14.0597 11.7482C14.1022 11.528 14.1674 11.1858 14.2046 10.9877C14.2418 10.7896 14.315 10.4127 14.3673 10.1501C14.4195 9.88756 14.4688 9.6622 14.4768 9.64931L14.4912 9.62588L13.9109 9.63308L13.3305 9.64027L13.2821 9.98714C13.2555 10.1779 13.1974 10.5561 13.153 10.8276C13.1085 11.0991 13.0413 11.5134 13.0035 11.7482C12.9658 11.983 12.9 12.3612 12.8573 12.5886C12.8146 12.8161 12.7492 13.1643 12.7119 13.3624C12.6747 13.5605 12.6078 13.9087 12.5633 14.1362C12.5189 14.3637 12.4592 14.6639 12.4307 14.8033C12.4023 14.9427 12.3717 15.0838 12.3628 15.1168L12.3466 15.1768H12.9206ZM26.3437 15.1768H26.9133L26.9304 14.9358C26.9398 14.8032 26.9721 14.536 27.0021 14.3421C27.0321 14.1481 27.0935 13.7613 27.1385 13.4825C27.1836 13.2037 27.2673 12.7396 27.3246 12.4512C27.3819 12.1628 27.4467 11.8761 27.4686 11.8141C27.4904 11.7521 27.5083 11.685 27.5083 11.6649C27.5083 11.6448 27.5512 11.5352 27.6035 11.4214C27.6559 11.3076 27.7534 11.1334 27.8203 11.0342L27.9419 10.8539L28.1047 10.7032L28.2675 10.5524L28.4682 10.4566L28.669 10.3607L28.9758 10.3623L29.2827 10.3639L29.4335 10.409C29.5165 10.4338 29.5916 10.4541 29.6003 10.4541C29.6091 10.4541 29.6162 10.4257 29.6162 10.391C29.6162 10.3564 29.6462 10.1806 29.6829 10.0005C29.7196 9.82033 29.7496 9.66534 29.7496 9.65605C29.7496 9.64677 29.6626 9.61269 29.5562 9.58034C29.4498 9.54799 29.3027 9.5141 29.2293 9.50504L29.0959 9.48857L28.9225 9.51924C28.8271 9.53611 28.6852 9.57336 28.6073 9.60201C28.5293 9.63066 28.4006 9.69564 28.3212 9.74642C28.2418 9.79719 28.1184 9.89614 28.0468 9.96629C27.9753 10.0364 27.855 10.1779 27.7795 10.2806C27.7039 10.3834 27.625 10.4914 27.604 10.5208L27.5658 10.5741L27.5889 10.4674C27.6017 10.4087 27.6372 10.2166 27.6679 10.0405C27.6986 9.86438 27.7301 9.69929 27.7379 9.67361L27.7521 9.62691H27.2433H26.7345V9.69123C26.7345 9.72661 26.7045 9.93973 26.6678 10.1648C26.6311 10.39 26.5706 10.7662 26.5333 11.001C26.4961 11.2358 26.4299 11.6441 26.3863 11.9082C26.3428 12.1724 26.2766 12.5506 26.2393 12.7487C26.202 12.9468 26.1358 13.295 26.0922 13.5225C26.0485 13.75 25.9761 14.1222 25.9312 14.3497C25.8863 14.5771 25.8325 14.8457 25.8117 14.9466C25.791 15.0475 25.774 15.1405 25.774 15.1534V15.1768L26.3437 15.1768ZM39.8667 15.1768H40.4492V14.9986V14.8203L40.5163 14.3782C40.5532 14.135 40.6141 13.75 40.6516 13.5225C40.6892 13.2951 40.7359 13.0069 40.7556 12.8822C40.7752 12.7574 40.8272 12.4873 40.8712 12.2818C40.9152 12.0764 40.9701 11.8542 40.9933 11.7882C41.0164 11.7221 41.0356 11.6529 41.0358 11.6342C41.036 11.6156 41.0856 11.4957 41.1461 11.3678L41.2561 11.1353L41.4011 10.9425L41.5462 10.7498L41.7049 10.6305C41.7922 10.5648 41.9326 10.4777 42.0169 10.4369L42.1702 10.3627L42.5037 10.365L42.8372 10.3673L42.9685 10.4095L43.0998 10.4516L43.1219 10.4379L43.1441 10.4243L43.1452 10.3391C43.1458 10.2923 43.1743 10.1181 43.2086 9.95192L43.271 9.64985L43.2009 9.62239C43.1623 9.60729 43.0707 9.57603 42.9973 9.55292L42.8639 9.51091L42.6238 9.51153L42.3836 9.51214L42.1879 9.58099L41.9922 9.64984L41.8453 9.73845L41.6983 9.82706L41.5073 10.0272L41.3162 10.2273L41.2136 10.3825C41.1571 10.4679 41.1074 10.5339 41.1031 10.5293C41.0989 10.5246 41.1295 10.3467 41.1713 10.1339C41.2131 9.92111 41.2478 9.71999 41.2485 9.68698L41.2496 9.62694H40.756H40.2624V9.64394C40.2624 9.65329 40.2378 9.82439 40.2077 10.0242C40.1776 10.2239 40.1172 10.6095 40.0735 10.881C40.0298 11.1525 39.958 11.5907 39.914 11.8549C39.8701 12.1191 39.8038 12.4973 39.7667 12.6954C39.7297 12.8935 39.6639 13.2417 39.6205 13.4692C39.5771 13.6966 39.5059 14.0628 39.4622 14.283C39.4184 14.5031 39.3605 14.7943 39.3334 14.93L39.2842 15.1768L39.8667 15.1768ZM14.0491 8.66579L14.2111 8.66638L14.3399 8.6225L14.4687 8.57862L14.5826 8.46301L14.6966 8.3474L14.7566 8.19337L14.8167 8.03935L14.8188 7.81255L14.821 7.58575L14.7676 7.49719L14.7142 7.40863L14.6213 7.35111L14.5284 7.29358H14.3278L14.1272 7.29358L13.9907 7.35472L13.8541 7.41586L13.7748 7.50081L13.6955 7.58575L13.6333 7.7325L13.571 7.87925L13.5593 8.10784L13.5475 8.33644L13.6055 8.45005L13.6634 8.56366L13.7753 8.61443L13.8871 8.6652L14.0491 8.66579Z" fill="#B3131B"/>
</g>
<defs>
<clipPath id="clip0_409_1079">
<rect width="52.8039" height="23" fill="white" transform="translate(0.429199 0.374756)"/>
</clipPath>
</defs>
</svg>
