<svg width="25" height="24" viewBox="0 0 25 24" fill="none" xmlns="http://www.w3.org/2000/svg">
<g id="instagram">
<path id="Vector" d="M12.5984 6.60928C9.61716 6.60928 7.21248 9.01396 7.21248 11.9952C7.21248 14.9765 9.61716 17.3812 12.5984 17.3812C15.5797 17.3812 17.9844 14.9765 17.9844 11.9952C17.9844 9.01396 15.5797 6.60928 12.5984 6.60928ZM12.5984 15.4968C10.6719 15.4968 9.09685 13.9265 9.09685 11.9952C9.09685 10.064 10.6672 8.49365 12.5984 8.49365C14.5297 8.49365 16.1 10.064 16.1 11.9952C16.1 13.9265 14.525 15.4968 12.5984 15.4968ZM19.4609 6.38896C19.4609 7.0874 18.8984 7.64522 18.2047 7.64522C17.5062 7.64522 16.9484 7.08271 16.9484 6.38896C16.9484 5.69521 17.5109 5.13271 18.2047 5.13271C18.8984 5.13271 19.4609 5.69521 19.4609 6.38896ZM23.0281 7.66397C22.9484 5.98115 22.564 4.49053 21.3312 3.2624C20.1031 2.03428 18.6125 1.6499 16.9297 1.56553C15.1953 1.46709 9.99685 1.46709 8.26248 1.56553C6.58435 1.64521 5.09373 2.02959 3.86091 3.25771C2.6281 4.48584 2.24841 5.97646 2.16404 7.65928C2.0656 9.39365 2.0656 14.5921 2.16404 16.3265C2.24373 18.0093 2.6281 19.4999 3.86091 20.728C5.09373 21.9562 6.57966 22.3405 8.26248 22.4249C9.99685 22.5233 15.1953 22.5233 16.9297 22.4249C18.6125 22.3452 20.1031 21.9608 21.3312 20.728C22.5594 19.4999 22.9437 18.0093 23.0281 16.3265C23.1265 14.5921 23.1265 9.39834 23.0281 7.66397ZM20.7875 18.1874C20.4219 19.1062 19.714 19.814 18.7906 20.1843C17.4078 20.7327 14.1265 20.6062 12.5984 20.6062C11.0703 20.6062 7.78435 20.728 6.40623 20.1843C5.48748 19.8187 4.77966 19.1108 4.40935 18.1874C3.86091 16.8046 3.98748 13.5233 3.98748 11.9952C3.98748 10.4671 3.8656 7.18115 4.40935 5.80303C4.77498 4.88428 5.48279 4.17646 6.40623 3.80615C7.78904 3.25771 11.0703 3.38428 12.5984 3.38428C14.1265 3.38428 17.4125 3.2624 18.7906 3.80615C19.7094 4.17178 20.4172 4.87959 20.7875 5.80303C21.3359 7.18584 21.2094 10.4671 21.2094 11.9952C21.2094 13.5233 21.3359 16.8093 20.7875 18.1874Z" fill="white"/>
</g>
</svg>
