<svg width="25" height="25" viewBox="0 0 25 25" fill="none" xmlns="http://www.w3.org/2000/svg">
<g id="location_on">
<mask id="mask0_409_1001" style="mask-type:alpha" maskUnits="userSpaceOnUse" x="0" y="0" width="25" height="25">
<rect id="Bounding box" x="0.71167" y="0.36499" width="24" height="24" fill="#D9D9D9"/>
</mask>
<g mask="url(#mask0_409_1001)">
<path id="location_on_2" d="M12.7117 12.365C13.2617 12.365 13.7325 12.1692 14.1242 11.7775C14.5158 11.3858 14.7117 10.915 14.7117 10.365C14.7117 9.81499 14.5158 9.34416 14.1242 8.95249C13.7325 8.56082 13.2617 8.36499 12.7117 8.36499C12.1617 8.36499 11.6908 8.56082 11.2992 8.95249C10.9075 9.34416 10.7117 9.81499 10.7117 10.365C10.7117 10.915 10.9075 11.3858 11.2992 11.7775C11.6908 12.1692 12.1617 12.365 12.7117 12.365ZM12.7117 19.715C14.745 17.8483 16.2533 16.1525 17.2367 14.6275C18.22 13.1025 18.7117 11.7483 18.7117 10.565C18.7117 8.74832 18.1325 7.26082 16.9742 6.10249C15.8158 4.94416 14.395 4.36499 12.7117 4.36499C11.0283 4.36499 9.6075 4.94416 8.44917 6.10249C7.29084 7.26082 6.71167 8.74832 6.71167 10.565C6.71167 11.7483 7.20334 13.1025 8.18667 14.6275C9.17 16.1525 10.6783 17.8483 12.7117 19.715ZM12.7117 22.365C10.0283 20.0817 8.02417 17.9608 6.69917 16.0025C5.37417 14.0442 4.71167 12.2317 4.71167 10.565C4.71167 8.06499 5.51584 6.07332 7.12417 4.58999C8.7325 3.10666 10.595 2.36499 12.7117 2.36499C14.8283 2.36499 16.6908 3.10666 18.2992 4.58999C19.9075 6.07332 20.7117 8.06499 20.7117 10.565C20.7117 12.2317 20.0492 14.0442 18.7242 16.0025C17.3992 17.9608 15.395 20.0817 12.7117 22.365Z" fill="white"/>
</g>
</g>
</svg>
