<svg width="25" height="25" viewBox="0 0 25 25" fill="none" xmlns="http://www.w3.org/2000/svg">
<g id="mail">
<mask id="mask0_409_1011" style="mask-type:alpha" maskUnits="userSpaceOnUse" x="0" y="0" width="25" height="25">
<rect id="Bounding box" x="0.71167" y="0.36499" width="24" height="24" fill="#D9D9D9"/>
</mask>
<g mask="url(#mask0_409_1011)">
<path id="mail_2" d="M4.71167 20.365C4.16167 20.365 3.69084 20.1692 3.29917 19.7775C2.9075 19.3858 2.71167 18.915 2.71167 18.365V6.36499C2.71167 5.81499 2.9075 5.34416 3.29917 4.95249C3.69084 4.56082 4.16167 4.36499 4.71167 4.36499H20.7117C21.2617 4.36499 21.7325 4.56082 22.1242 4.95249C22.5158 5.34416 22.7117 5.81499 22.7117 6.36499V18.365C22.7117 18.915 22.5158 19.3858 22.1242 19.7775C21.7325 20.1692 21.2617 20.365 20.7117 20.365H4.71167ZM12.7117 13.365L4.71167 8.36499V18.365H20.7117V8.36499L12.7117 13.365ZM12.7117 11.365L20.7117 6.36499H4.71167L12.7117 11.365ZM4.71167 8.36499V6.36499V18.365V8.36499Z" fill="white"/>
</g>
</g>
</svg>
