<svg width="39" height="31" viewBox="0 0 39 31" fill="none" xmlns="http://www.w3.org/2000/svg">
<g id="MasterCard logo" clip-path="url(#clip0_409_1060)">
<path id="Vector" d="M38.115 30.468V30.5451H38.1869C38.2004 30.5454 38.2137 30.542 38.2254 30.5353C38.2301 30.532 38.2339 30.5276 38.2364 30.5224C38.2389 30.5173 38.2401 30.5116 38.2399 30.5058C38.2401 30.5002 38.2389 30.4946 38.2364 30.4896C38.2339 30.4845 38.2301 30.4802 38.2254 30.4771C38.2138 30.4701 38.2004 30.4667 38.1869 30.4673H38.115V30.468ZM38.1876 30.4135C38.2185 30.4116 38.249 30.4204 38.274 30.4385C38.284 30.4467 38.292 30.4572 38.2973 30.4691C38.3025 30.4809 38.3049 30.4938 38.3043 30.5068C38.3047 30.5179 38.3028 30.529 38.2986 30.5394C38.2944 30.5497 38.2881 30.5591 38.28 30.5667C38.2607 30.5835 38.2365 30.5936 38.211 30.5955L38.3074 30.7054H38.2331L38.1445 30.5962H38.1157V30.7054H38.0536V30.4137H38.1886L38.1876 30.4135ZM38.1684 30.806C38.2009 30.8063 38.2332 30.7997 38.263 30.7867C38.2918 30.7743 38.318 30.7566 38.3401 30.7345C38.3624 30.7124 38.3801 30.6862 38.3924 30.6574C38.4177 30.5963 38.4177 30.5276 38.3924 30.4665C38.3799 30.4378 38.3622 30.4116 38.3401 30.3894C38.318 30.3672 38.2918 30.3495 38.263 30.3371C38.233 30.3248 38.2008 30.3186 38.1684 30.319C38.1354 30.3187 38.1026 30.3248 38.072 30.3371C38.0425 30.3493 38.0158 30.367 37.9931 30.3894C37.959 30.4243 37.9359 30.4686 37.9268 30.5166C37.9176 30.5646 37.9228 30.6142 37.9416 30.6593C37.9534 30.6882 37.9709 30.7145 37.9931 30.7364C38.0158 30.7587 38.0426 30.7765 38.072 30.7887C38.1024 30.8017 38.1352 30.8082 38.1684 30.8079M38.1684 30.2488C38.2531 30.2487 38.3345 30.282 38.3949 30.3414C38.424 30.3699 38.4472 30.4039 38.4632 30.4414C38.4796 30.48 38.4881 30.5214 38.4881 30.5634C38.4881 30.6053 38.4796 30.6468 38.4632 30.6853C38.4469 30.7226 38.4237 30.7566 38.3949 30.7854C38.3653 30.8137 38.3309 30.8366 38.2933 30.8529C38.2538 30.8696 38.2113 30.8782 38.1684 30.8779C38.1249 30.8782 38.0819 30.8697 38.0419 30.8529C38.0038 30.837 37.9691 30.8141 37.9395 30.7854C37.9107 30.7555 37.8879 30.7205 37.8722 30.682C37.8557 30.6435 37.8472 30.602 37.8472 30.5601C37.8472 30.5182 37.8557 30.4767 37.8722 30.4381C37.8881 30.4006 37.9113 30.3666 37.9405 30.3381C37.9697 30.3089 38.0045 30.2859 38.0429 30.2706C38.0829 30.2538 38.1259 30.2452 38.1693 30.2455M8.64651 29.1223C8.64651 28.566 9.01091 28.1091 9.60647 28.1091C10.1756 28.1091 10.5597 28.5464 10.5597 29.1223C10.5597 29.6982 10.1756 30.1354 9.60647 30.1354C9.01091 30.1354 8.64651 29.6785 8.64651 29.1223ZM11.2085 29.1223V27.5394H10.5204V27.925C10.3021 27.64 9.97106 27.4613 9.52087 27.4613C8.63398 27.4613 7.93796 28.1569 7.93796 29.123C7.93796 30.0892 8.63359 30.7848 9.52087 30.7848C9.97087 30.7848 10.3021 30.6059 10.5204 30.3211V30.7054H11.2077V29.1223H11.2085ZM34.4589 29.1223C34.4589 28.566 34.8232 28.1091 35.419 28.1091C35.9887 28.1091 36.3722 28.5464 36.3722 29.1223C36.3722 29.6982 35.9887 30.1354 35.419 30.1354C34.8234 30.1354 34.4589 29.6785 34.4589 29.1223ZM37.0216 29.1223V26.2688H36.3329V27.925C36.1146 27.64 35.7836 27.4613 35.3334 27.4613C34.4465 27.4613 33.7505 28.1569 33.7505 29.123C33.7505 30.0892 34.4461 30.7848 35.3334 30.7848C35.7836 30.7848 36.1146 30.6059 36.3329 30.3211V30.7054H37.0216V29.1223ZM19.7488 28.0765C20.1923 28.0765 20.477 28.3545 20.5497 28.8441H18.9078C18.9813 28.3871 19.2587 28.0765 19.749 28.0765M19.7627 27.4595C18.8353 27.4595 18.1865 28.1344 18.1865 29.1213C18.1865 30.1275 18.8614 30.7831 19.8088 30.7831C20.2854 30.7831 20.7219 30.6641 21.106 30.3396L20.7687 29.8297C20.5035 30.0417 20.1657 30.1607 19.8481 30.1607C19.4047 30.1607 19.0009 29.9554 18.9017 29.3856H21.2513C21.2581 29.3 21.265 29.2137 21.265 29.1211C21.2581 28.1345 20.6481 27.4594 19.7623 27.4594M28.0702 29.1211C28.0702 28.5649 28.4346 28.1079 29.0301 28.1079C29.5993 28.1079 29.9833 28.5452 29.9833 29.1211C29.9833 29.697 29.5993 30.1343 29.0301 30.1343C28.4346 30.1343 28.07 29.6773 28.07 29.1211M30.6319 29.1211V27.5394H29.9442V27.925C29.7252 27.64 29.3949 27.4613 28.9447 27.4613C28.0578 27.4613 27.3618 28.1569 27.3618 29.123C27.3618 30.0892 28.0574 30.7848 28.9447 30.7848C29.3949 30.7848 29.7252 30.6059 29.9442 30.3211V30.7054H30.6321V29.1223L30.6319 29.1211ZM24.1842 29.1211C24.1842 30.0811 24.8525 30.7829 25.8724 30.7829C26.349 30.7829 26.6666 30.6768 27.0099 30.4056L26.6795 29.8493C26.4211 30.035 26.1499 30.1343 25.8504 30.1343C25.3011 30.1275 24.8972 29.7304 24.8972 29.1211C24.8972 28.5119 25.3011 28.1149 25.8504 28.1079C26.1491 28.1079 26.4204 28.2072 26.6795 28.3929L27.0099 27.8367C26.666 27.5654 26.3484 27.4594 25.8724 27.4594C24.8525 27.4594 24.1842 28.161 24.1842 29.1211ZM33.0551 27.4594C32.6581 27.4594 32.3995 27.645 32.2208 27.923V27.5394H31.5389V30.7036H32.2277V28.9299C32.2277 28.4062 32.4527 28.1153 32.9026 28.1153C33.0498 28.1131 33.1961 28.1402 33.3329 28.1949L33.545 27.5463C33.3927 27.4863 33.1941 27.4599 33.0547 27.4599M14.6105 27.791C14.2794 27.5727 13.8232 27.4599 13.32 27.4599C12.5184 27.4599 12.0022 27.8442 12.0022 28.4729C12.0022 28.9889 12.3865 29.3072 13.0941 29.4065L13.4191 29.4527C13.7964 29.5058 13.9746 29.605 13.9746 29.7838C13.9746 30.0284 13.724 30.168 13.2533 30.168C12.7767 30.168 12.4328 30.0157 12.2008 29.837L11.8775 30.3736C12.2548 30.6516 12.7314 30.7842 13.2475 30.7842C14.1614 30.7842 14.691 30.3539 14.691 29.7514C14.691 29.1951 14.2742 28.9042 13.5855 28.8049L13.2612 28.7579C12.9633 28.7193 12.7247 28.6594 12.7247 28.4473C12.7247 28.2159 12.9497 28.0767 13.3272 28.0767C13.7311 28.0767 14.1221 28.229 14.3137 28.348L14.6116 27.7917L14.6105 27.791ZM23.4892 27.4605C23.0922 27.4605 22.8337 27.6462 22.6557 27.9242V27.5394H21.9738V30.7036H22.6619V28.9299C22.6619 28.4062 22.8869 28.1153 23.3367 28.1153C23.484 28.1131 23.6302 28.1402 23.767 28.1949L23.9791 27.5463C23.8268 27.4863 23.6282 27.4599 23.4888 27.4599M17.6172 27.5394H16.492V26.5794H15.7964V27.5394H15.1545V28.1683H15.7964V29.6118C15.7964 30.346 16.0813 30.7833 16.8954 30.7833C17.194 30.7833 17.538 30.6907 17.7562 30.5386L17.5574 29.9494C17.3521 30.0683 17.1271 30.1283 16.9482 30.1283C16.6042 30.1283 16.492 29.9162 16.492 29.5987V28.1689H17.6172V27.5394ZM7.32948 30.7044V28.7185C7.32948 27.9707 6.85287 27.4675 6.08456 27.4607C5.68064 27.454 5.26399 27.5797 4.97228 28.0237C4.75403 27.6728 4.41007 27.4607 3.92652 27.4607C3.58854 27.4607 3.25827 27.56 2.99972 27.9306V27.5394H2.31104V30.7036H3.00512V28.9491C3.00512 28.3998 3.30975 28.1079 3.78019 28.1079C4.23713 28.1079 4.4683 28.4058 4.4683 28.9422V30.7032H5.16393V28.9487C5.16393 28.3995 5.48147 28.1076 5.93822 28.1076C6.40808 28.1076 6.63231 28.4054 6.63231 28.9418V30.7029L7.32948 30.7044Z" fill="#231F20"/>
<path id="Vector_2" d="M38.5075 20.1785V19.7158H38.387L38.2476 20.0334L38.109 19.7158H37.9881V20.1785H38.0737V19.83L38.204 20.1307H38.2927L38.423 19.8292V20.1785H38.5079H38.5075ZM37.743 20.1785V19.7951H37.8973V19.717H37.5032V19.7951H37.6574V20.1785H37.7422H37.743Z" fill="#F79410"/>
<path id="Vector_3" d="M24.8112 22.163H14.3833V3.42261H24.8114L24.8112 22.163Z" fill="#FF5F00"/>
<path id="Vector_4" d="M15.0445 12.7932C15.0445 8.99173 16.8245 5.60536 19.5962 3.42303C17.4982 1.76869 14.9032 0.870821 12.2314 0.874769C5.64967 0.874769 0.314453 6.21076 0.314453 12.7932C0.314453 19.3757 5.64967 24.7117 12.2314 24.7117C14.9032 24.7156 17.4983 23.8178 19.5964 22.1634C16.8249 19.9815 15.0445 16.5949 15.0445 12.7932Z" fill="#EB001B"/>
<path id="Vector_5" d="M38.8796 12.7932C38.8796 19.3757 33.5444 24.7117 26.9627 24.7117C24.2905 24.7156 21.6952 23.8177 19.5967 22.1634C22.3692 19.9811 24.1491 16.5949 24.1491 12.7932C24.1491 8.99154 22.3692 5.60536 19.5967 3.42303C21.6951 1.76874 24.2904 0.87089 26.9625 0.874768C33.5442 0.874768 38.8794 6.21076 38.8794 12.7932" fill="#F79E1B"/>
</g>
<defs>
<clipPath id="clip0_409_1060">
<rect width="38.5604" height="30" fill="white" transform="translate(0.314453 0.874756)"/>
</clipPath>
</defs>
</svg>
