<svg width="109" height="40" viewBox="0 0 109 40" fill="none" xmlns="http://www.w3.org/2000/svg">
<g id="pix logo" clip-path="url(#clip0_409_1082)">
<path id="Vector" d="M44.928 36.6848V14.6931C44.928 12.7502 45.6998 10.8869 47.0736 9.51307C48.4474 8.13924 50.3108 7.36743 52.2536 7.36743L58.7461 7.37649C60.6839 7.38039 62.541 8.153 63.9098 9.52474C65.2786 10.8965 66.0472 12.7553 66.0468 14.6931V19.3731C66.0468 21.3161 65.2751 23.1795 63.9013 24.5535C62.5275 25.9275 60.6642 26.6996 58.7212 26.6999H49.5446" stroke="#939598" stroke-width="0.708679" stroke-linecap="round" stroke-linejoin="round"/>
<path id="Vector_2" d="M67.8616 7.36621H70.6782C71.4756 7.36621 72.2404 7.683 72.8043 8.24688C73.3682 8.81076 73.685 9.57555 73.685 10.373V26.7994" stroke="#939598" stroke-width="0.708679" stroke-linecap="round" stroke-linejoin="round"/>
<path id="Vector_3" d="M73.0806 4.82132L71.8036 3.54321C71.7282 3.46793 71.6685 3.37855 71.6277 3.28016C71.5869 3.18177 71.5659 3.07631 71.5659 2.96981C71.5659 2.86331 71.5869 2.75785 71.6277 2.65947C71.6685 2.56108 71.7282 2.47169 71.8036 2.39642L73.0806 1.11943C73.233 0.96714 73.4396 0.881592 73.6551 0.881592C73.8705 0.881592 74.0772 0.96714 74.2296 1.11943L75.5055 2.39642C75.5808 2.47169 75.6406 2.56108 75.6813 2.65947C75.7221 2.75785 75.7431 2.86331 75.7431 2.96981C75.7431 3.07631 75.7221 3.18177 75.6813 3.28016C75.6406 3.37855 75.5808 3.46793 75.5055 3.54321L74.2239 4.82132C74.1486 4.8967 74.0591 4.95649 73.9606 4.99728C73.8621 5.03807 73.7566 5.05907 73.65 5.05907C73.5434 5.05907 73.4378 5.03807 73.3394 4.99728C73.2409 4.95649 73.1514 4.8967 73.076 4.82132" fill="#32BCAD"/>
<path id="Vector_4" d="M79.0916 7.35181H81.8844C83.321 7.35121 84.699 7.92131 85.7153 8.93671L92.2485 15.4699C92.4497 15.6713 92.6885 15.831 92.9514 15.94C93.2144 16.049 93.4962 16.1051 93.7808 16.1051C94.0654 16.1051 94.3472 16.049 94.6102 15.94C94.8731 15.831 95.1119 15.6713 95.3131 15.4699L101.822 8.96162C102.325 8.45878 102.923 8.05999 103.58 7.78804C104.237 7.51609 104.941 7.37632 105.652 7.37671H107.923" stroke="#939598" stroke-width="0.708679" stroke-linecap="round" stroke-linejoin="round"/>
<path id="Vector_5" d="M79.0916 26.6557H81.8844C83.321 26.6562 84.699 26.0861 85.7153 25.0708L92.2485 18.5376C92.655 18.1315 93.2062 17.9033 93.7808 17.9033C94.3554 17.9033 94.9066 18.1315 95.3131 18.5376L101.822 25.047C102.838 26.0623 104.216 26.6324 105.652 26.6319H107.923" stroke="#939598" stroke-width="0.708679" stroke-linecap="round" stroke-linejoin="round"/>
<path id="Vector_6" d="M28.2762 30.8286C27.5871 30.8311 26.9044 30.697 26.2675 30.4341C25.6305 30.1712 25.052 29.7847 24.5653 29.2969L19.2049 23.9331C19.0153 23.7518 18.7631 23.6506 18.5007 23.6506C18.2384 23.6506 17.9862 23.7518 17.7966 23.9331L12.4181 29.3116C11.9317 29.8001 11.3533 30.1874 10.7164 30.4511C10.0794 30.7148 9.39652 30.8496 8.70715 30.8478H7.65771L14.4502 37.6403C15.4689 38.6569 16.8493 39.2278 18.2885 39.2278C19.7276 39.2278 21.108 38.6569 22.1268 37.6403L28.9328 30.8331L28.2762 30.8286Z" fill="#32BCAD"/>
<path id="Vector_7" d="M8.70828 11.8732C9.39766 11.8713 10.0806 12.0062 10.7175 12.2698C11.3545 12.5335 11.9329 12.9208 12.4192 13.4094L17.7977 18.789C17.9847 18.9754 18.2379 19.0801 18.5019 19.0801C18.7658 19.0801 19.0191 18.9754 19.206 18.789L24.5653 13.4298C25.0512 12.9406 25.6295 12.5528 26.2665 12.2889C26.9036 12.025 27.5867 11.8902 28.2762 11.8924H28.9215L22.1155 5.08639C21.6115 4.58222 21.0131 4.18227 20.3545 3.90941C19.6959 3.63654 18.99 3.49609 18.2771 3.49609C17.5643 3.49609 16.8584 3.63654 16.1998 3.90941C15.5412 4.18227 14.9428 4.58222 14.4388 5.08639L7.65771 11.8732H8.70828Z" fill="#32BCAD"/>
<path id="Vector_8" d="M34.5514 17.5233L30.4385 13.4104C30.3458 13.4484 30.2467 13.4683 30.1465 13.4693H28.2763C27.3031 13.4718 26.3702 13.8583 25.6804 14.5448L20.3212 19.9006C19.8385 20.3824 19.1844 20.653 18.5025 20.653C17.8205 20.653 17.1665 20.3824 16.6838 19.9006L11.3042 14.5244C10.6146 13.8375 9.6817 13.4505 8.70834 13.4478H6.41249C6.31787 13.4457 6.22437 13.4269 6.13627 13.3923L1.9974 17.5233C0.980831 18.542 0.409912 19.9224 0.409912 21.3616C0.409912 22.8008 0.980831 24.1811 1.9974 25.1999L6.12721 29.3297C6.21513 29.2945 6.30875 29.2757 6.40344 29.2742H8.70834C9.68167 29.2714 10.6145 28.8845 11.3042 28.1976L16.6827 22.8191C17.6551 21.8478 19.3499 21.8478 20.3212 22.8191L25.6804 28.1772C26.3702 28.8638 27.3031 29.2503 28.2763 29.2527H30.1465C30.2467 29.2534 30.3459 29.2734 30.4385 29.3116L34.5514 25.1987C35.0555 24.6948 35.4555 24.0964 35.7283 23.4378C36.0012 22.7792 36.1417 22.0733 36.1417 21.3604C36.1417 20.6476 36.0012 19.9417 35.7283 19.2831C35.4555 18.6245 35.0555 18.0261 34.5514 17.5221" fill="#32BCAD"/>
<path id="Vector_9" d="M50.5114 34.8158C50.1714 34.8307 49.834 34.882 49.505 34.9687V36.3091C49.7567 36.3973 50.0217 36.4417 50.2884 36.4404C50.9608 36.4404 51.2789 36.214 51.2789 35.6219C51.2789 35.0649 51.0186 34.8158 50.5114 34.8158ZM49.2786 37.3064V34.654H49.4631L49.4823 34.7672C49.8253 34.676 50.1764 34.6195 50.5306 34.5985C50.7761 34.5813 51.0196 34.6519 51.2178 34.7977C51.4442 34.9857 51.5212 35.2891 51.5212 35.6196C51.5212 35.9502 51.408 36.2921 51.091 36.4721C50.8491 36.5928 50.5813 36.6523 50.311 36.6453C50.0378 36.6436 49.7662 36.602 49.505 36.5219V37.3019L49.2786 37.3064Z" fill="#939598"/>
<path id="Vector_10" d="M53.208 34.808C52.5366 34.808 52.2366 35.0186 52.2366 35.6106C52.2366 36.1823 52.5321 36.4405 53.208 36.4405C53.8838 36.4405 54.1759 36.2322 54.1759 35.6412C54.1759 35.0695 53.8804 34.808 53.208 34.808ZM54.0729 36.4405C53.8465 36.6012 53.5499 36.6476 53.208 36.6476C52.8661 36.6476 52.5593 36.5978 52.3408 36.4405C52.0951 36.2672 51.9944 35.9876 51.9944 35.6265C51.9944 35.2654 52.0951 34.9846 52.3408 34.808C52.5593 34.6506 52.8593 34.6008 53.208 34.6008C53.5566 34.6008 53.8499 34.6506 54.0729 34.808C54.3219 34.9846 54.4182 35.2721 54.4182 35.622C54.4182 35.9718 54.3185 36.2672 54.0729 36.4405Z" fill="#939598"/>
<path id="Vector_11" d="M57.2538 36.5931L56.5044 34.9844H56.4897L55.7516 36.5931H55.5444L54.752 34.6538H55.001L55.6655 36.2817H55.6814L56.4037 34.6538H56.6108L57.3512 36.2817H57.367L58.0157 34.6538H58.2614L57.4621 36.5931H57.2538Z" fill="#939598"/>
<path id="Vector_12" d="M59.705 34.8033C59.0824 34.8033 58.8718 35.0806 58.8333 35.4825H60.5767C60.5575 35.041 60.331 34.8033 59.705 34.8033ZM59.6971 36.6474C59.3246 36.6474 59.0824 36.5931 58.8899 36.4323C58.6635 36.2365 58.5876 35.9523 58.5876 35.6263C58.5876 35.3002 58.6907 34.9844 58.9488 34.7965C59.1745 34.6545 59.4387 34.5861 59.705 34.6006C59.9765 34.5842 60.2466 34.6497 60.4805 34.7885C60.7601 34.9765 60.8144 35.307 60.8144 35.6829H58.8276C58.8356 36.0825 58.9658 36.4357 59.7186 36.4357C60.0552 36.4268 60.3904 36.389 60.7205 36.3225V36.5263C60.3849 36.5953 60.044 36.6351 59.7016 36.6451" fill="#939598"/>
<path id="Vector_13" d="M61.4653 36.5931V34.6539H61.6487L61.668 34.7671C62.0789 34.6629 62.2714 34.5984 62.6325 34.5984H62.6597V34.8135H62.6053C62.3019 34.8135 62.1174 34.8554 61.6917 34.9663V36.5908L61.4653 36.5931Z" fill="#939598"/>
<path id="Vector_14" d="M63.9753 34.8033C63.3538 34.8033 63.1421 35.0806 63.1036 35.4825H64.847C64.8277 35.041 64.6013 34.8033 63.9753 34.8033ZM63.9673 36.6474C63.5949 36.6474 63.3538 36.5931 63.1613 36.4323C62.9349 36.2365 62.8579 35.9523 62.8579 35.6263C62.8579 35.3002 62.9621 34.9844 63.219 34.7965C63.4449 34.6548 63.709 34.5864 63.9753 34.6006C64.2467 34.5842 64.5169 34.6497 64.7507 34.7885C65.0315 34.9765 65.0904 35.307 65.0904 35.6829H63.0957C63.1036 36.0825 63.2338 36.4357 63.9866 36.4357C64.3236 36.4269 64.6591 36.389 64.9896 36.3225V36.5263C64.6541 36.5952 64.3132 36.635 63.9707 36.6451" fill="#939598"/>
<path id="Vector_15" d="M67.5673 34.9379C67.3155 34.8501 67.0505 34.806 66.7839 34.8077C66.1114 34.8077 65.7933 35.0342 65.7933 35.6262C65.7933 36.1866 66.0548 36.4323 66.5608 36.4323C66.9006 36.4165 67.2378 36.3661 67.5673 36.2817V34.9379ZM67.6103 36.593L67.5899 36.4798C67.2472 36.572 66.8959 36.6289 66.5416 36.6496C66.2958 36.6681 66.0517 36.597 65.8544 36.4493C65.628 36.2613 65.551 35.9579 65.551 35.6285C65.551 35.2821 65.6642 34.956 65.9812 34.7794C66.2235 34.6559 66.4928 34.5952 66.7646 34.6028C67.0365 34.6066 67.3066 34.6477 67.5673 34.7251V33.8364H67.7937V36.593H67.6103Z" fill="#939598"/>
<path id="Vector_16" d="M71.1161 34.8157C70.7762 34.8306 70.4388 34.8818 70.1097 34.9685V36.3055C70.3609 36.3962 70.6261 36.4418 70.8931 36.4402C71.5656 36.4402 71.8837 36.2138 71.8837 35.6217C71.8837 35.0647 71.6233 34.8157 71.1161 34.8157ZM71.6958 36.4742C71.4542 36.5948 71.1868 36.6542 70.9169 36.6474C70.6215 36.6455 70.3283 36.5962 70.0486 36.5013L70.0373 36.593H69.8833V33.8364H70.1097V34.7613C70.4457 34.6754 70.7892 34.6215 71.1354 34.6006C71.3808 34.5834 71.6244 34.654 71.8225 34.7998C72.049 34.9877 72.1259 35.2911 72.1259 35.6217C72.1259 35.9523 72.0127 36.2942 71.6958 36.4742Z" fill="#939598"/>
<path id="Vector_17" d="M72.4272 37.3345V37.124C72.5404 37.1353 72.6423 37.1432 72.7147 37.1432C72.9955 37.1432 73.1675 37.0617 73.3215 36.7436L73.3951 36.5896L72.3762 34.6504H72.6389L73.5072 36.3247H73.5219L74.3472 34.6504H74.6053L73.514 36.8285C73.3147 37.2236 73.0996 37.3538 72.7034 37.3538C72.6099 37.3533 72.5165 37.3469 72.4238 37.3345" fill="#939598"/>
<path id="Vector_18" d="M77.7333 35.4872H76.9816V36.1664H77.7333C78.2518 36.1664 78.4476 36.1087 78.4476 35.8268C78.4476 35.5234 78.1782 35.4872 77.7287 35.4872M77.5929 34.3913H76.9793V35.0819H77.5974C78.108 35.0819 78.3118 35.0207 78.3118 34.7332C78.3118 34.4253 78.0536 34.3936 77.5929 34.3936M78.7612 36.4177C78.4838 36.5943 78.1499 36.6011 77.5397 36.6011H76.3906V33.9634H77.5125C78.0389 33.9634 78.3616 33.9702 78.6299 34.1321C78.719 34.1852 78.7915 34.2623 78.8391 34.3545C78.8868 34.4467 78.9076 34.5505 78.8993 34.6539C78.8993 34.9302 78.7861 35.1147 78.4838 35.2381V35.2528C78.8235 35.3298 79.0408 35.503 79.0408 35.8755C79.0493 35.9818 79.0276 36.0884 78.9781 36.183C78.9286 36.2775 78.8534 36.3561 78.7612 36.4098" fill="#939598"/>
<path id="Vector_19" d="M81.3378 35.7793C81.1114 35.76 80.885 35.7487 80.6393 35.7487C80.2442 35.7487 80.105 35.8291 80.105 36.0102C80.105 36.1913 80.2182 36.2706 80.5239 36.2706C80.7984 36.2616 81.0712 36.2236 81.3378 36.1574V35.7793ZM81.451 36.5932L81.4363 36.48C81.093 36.5768 80.7398 36.6337 80.3835 36.6498C80.1776 36.6637 79.9725 36.6139 79.7959 36.5072C79.7201 36.4435 79.6612 36.362 79.6245 36.2699C79.5878 36.1779 79.5744 36.0782 79.5856 35.9798C79.5969 35.8814 79.6323 35.7872 79.6887 35.7058C79.7452 35.6244 79.8209 35.5582 79.9091 35.5132C80.1129 35.417 80.3858 35.4091 80.6359 35.4091C80.8386 35.4091 81.1114 35.4204 81.3378 35.4362V35.4011C81.3378 35.0977 81.1386 34.9981 80.5929 34.9981C80.3824 34.9981 80.1242 35.0094 79.8786 35.0321V34.6404C80.1514 34.6177 80.4593 34.603 80.7129 34.603C81.0525 34.603 81.4001 34.6291 81.6186 34.783C81.8371 34.937 81.8835 35.16 81.8835 35.4476V36.5955L81.451 36.5932Z" fill="#939598"/>
<path id="Vector_20" d="M84.4124 36.5932V35.5233C84.4124 35.1701 84.2324 35.0433 83.9098 35.0433C83.6419 35.0552 83.3762 35.0962 83.1173 35.1656V36.5943H82.5762V34.6539H83.0177L83.0369 34.7773C83.3745 34.6779 83.7225 34.6187 84.0739 34.6007C84.3125 34.5816 84.5497 34.6527 84.7384 34.7999C84.8913 34.9381 84.949 35.1305 84.949 35.4067V36.5932H84.4124Z" fill="#939598"/>
<path id="Vector_21" d="M86.4795 36.6476C86.2293 36.6476 85.9565 36.6125 85.7572 36.4438C85.5195 36.2514 85.4504 35.9491 85.4504 35.622C85.4504 35.3152 85.5501 34.9801 85.8455 34.7922C86.0878 34.6348 86.3867 34.6008 86.698 34.6008C86.9244 34.6008 87.1395 34.6155 87.3772 34.6382V35.0537C87.1814 35.0344 86.947 35.0197 86.7591 35.0197C86.244 35.0197 86.0018 35.1805 86.0018 35.6265C86.0018 36.0442 86.1829 36.2254 86.6052 36.2254C86.8789 36.2164 87.1513 36.1831 87.4191 36.1257V36.5242C87.1092 36.5964 86.793 36.6377 86.475 36.6476" fill="#939598"/>
<path id="Vector_22" d="M89.0233 35.0072C88.5082 35.0072 88.2818 35.1691 88.2818 35.6106C88.2818 36.0521 88.5082 36.2401 89.0233 36.2401C89.5384 36.2401 89.7569 36.0827 89.7569 35.6412C89.7569 35.1997 89.5384 35.0072 89.0233 35.0072ZM89.9528 36.4438C89.715 36.6046 89.4037 36.6476 89.0233 36.6476C88.643 36.6476 88.3249 36.6012 88.0905 36.4438C87.8211 36.2672 87.7249 35.9752 87.7249 35.6265C87.7249 35.2778 87.8211 34.9801 88.0905 34.8035C88.3249 34.6461 88.635 34.6008 89.0233 34.6008C89.4116 34.6008 89.715 34.6461 89.9528 34.8035C90.2211 34.9801 90.3139 35.2767 90.3139 35.622C90.3139 35.9672 90.2177 36.2672 89.9528 36.4438Z" fill="#939598"/>
<path id="Vector_23" d="M93.4396 36.6474C93.1135 36.6474 92.7603 36.5931 92.4954 36.3746C92.1807 36.1131 92.0845 35.7101 92.0845 35.2765C92.0845 34.8882 92.2079 34.4274 92.6177 34.1591C92.9369 33.952 93.332 33.9089 93.7316 33.9089C94.0237 33.9089 94.3237 33.9282 94.6498 33.9554V34.4274C94.3701 34.4048 94.0237 34.3855 93.7554 34.3855C93.006 34.3855 92.6879 34.6697 92.6879 35.2765C92.6879 35.8833 92.9833 36.1708 93.5358 36.1708C93.9306 36.1572 94.3231 36.1045 94.7075 36.0135V36.4821C94.2912 36.5784 93.8666 36.6337 93.4396 36.6474Z" fill="#939598"/>
<path id="Vector_24" d="M96.2992 34.9461C95.8464 34.9461 95.6765 35.108 95.6415 35.3989H96.9479C96.932 35.0842 96.7475 34.9461 96.2992 34.9461ZM96.2177 36.6442C95.8996 36.6442 95.6109 36.6057 95.3958 36.4291C95.1807 36.2525 95.0845 35.9491 95.0845 35.6185C95.0845 35.3231 95.1807 34.9925 95.4501 34.8001C95.6879 34.6314 95.9913 34.5974 96.2992 34.5974C96.5754 34.5974 96.9014 34.628 97.1392 34.7933C97.4505 35.0117 97.4788 35.3502 97.4788 35.7487H95.6381C95.6494 36.0453 95.8067 36.2367 96.3524 36.2367C96.6989 36.2291 97.0444 36.1958 97.386 36.137V36.5174C97.0005 36.5906 96.6099 36.633 96.2177 36.6442Z" fill="#939598"/>
<path id="Vector_25" d="M99.8902 36.5932V35.5233C99.8902 35.1701 99.7102 35.0433 99.3875 35.0433C99.1197 35.0552 98.854 35.0962 98.5951 35.1656V36.5943H98.054V34.6539H98.4955L98.5147 34.7773C98.8522 34.6779 99.2003 34.6187 99.5517 34.6007C99.7903 34.5816 100.027 34.6527 100.216 34.7999C100.369 34.9381 100.427 35.1305 100.427 35.4067V36.5932H99.8902Z" fill="#939598"/>
<path id="Vector_26" d="M101.97 36.6475C101.708 36.6475 101.471 36.574 101.34 36.3702C101.234 36.194 101.184 35.9892 101.198 35.7838V35.057H100.806V34.654H101.198L101.256 34.0664H101.733V34.654H102.497V35.057H101.733V35.6796C101.726 35.805 101.744 35.9305 101.787 36.0487C101.844 36.1789 101.971 36.2287 102.141 36.2287C102.271 36.2263 102.4 36.2134 102.528 36.1902V36.5785C102.344 36.6184 102.156 36.6415 101.968 36.6475" fill="#939598"/>
<path id="Vector_27" d="M103.028 36.5931V34.6538H103.47L103.489 34.7772C103.799 34.6721 104.122 34.6126 104.449 34.6006C104.472 34.5993 104.495 34.5993 104.518 34.6006V35.0704C104.457 35.0704 104.383 35.0704 104.33 35.0704C104.073 35.0715 103.818 35.105 103.569 35.1701V36.6021L103.028 36.5931Z" fill="#939598"/>
<path id="Vector_28" d="M106.488 35.7793C106.262 35.76 106.035 35.7487 105.788 35.7487C105.393 35.7487 105.255 35.8291 105.255 36.0102C105.255 36.1913 105.368 36.2706 105.673 36.2706C105.948 36.2616 106.221 36.2236 106.488 36.1574V35.7793ZM106.601 36.5932L106.585 36.48C106.242 36.5768 105.889 36.6337 105.533 36.6498C105.327 36.6637 105.122 36.6139 104.945 36.5072C104.874 36.4525 104.817 36.3812 104.779 36.2995C104.742 36.2179 104.725 36.1282 104.73 36.0385C104.725 35.9281 104.753 35.8187 104.812 35.7249C104.87 35.631 104.956 35.5572 105.057 35.5132C105.261 35.417 105.533 35.4091 105.783 35.4091C105.986 35.4091 106.259 35.4204 106.486 35.4362V35.4011C106.486 35.0977 106.285 34.9981 105.741 34.9981C105.529 34.9981 105.272 35.0094 105.026 35.0321V34.6404C105.299 34.6177 105.606 34.603 105.86 34.603C106.199 34.603 106.547 34.6291 106.765 34.783C106.984 34.937 107.03 35.16 107.03 35.4476V36.5955L106.601 36.5932Z" fill="#939598"/>
<path id="Vector_29" d="M107.724 33.8364H108.266V36.593H107.724V33.8364Z" fill="#939598"/>
</g>
<defs>
<clipPath id="clip0_409_1082">
<rect width="108" height="38.3774" fill="white" transform="translate(0.314453 0.874756)"/>
</clipPath>
</defs>
</svg>
