<svg width="25" height="24" viewBox="0 0 25 24" fill="none" xmlns="http://www.w3.org/2000/svg">
<g id="twitter" clip-path="url(#clip0_409_1037)">
<path id="Vector" d="M22.1267 7.11175C22.142 7.32494 22.142 7.53817 22.142 7.75136C22.142 14.2539 17.1927 21.7463 8.14705 21.7463C5.36023 21.7463 2.77142 20.9391 0.59375 19.5382C0.989703 19.5838 1.37037 19.5991 1.78156 19.5991C4.08102 19.5991 6.1978 18.8224 7.88816 17.4976C5.72572 17.4519 3.91353 16.0356 3.28916 14.0864C3.59375 14.132 3.8983 14.1625 4.21812 14.1625C4.65973 14.1625 5.10139 14.1016 5.51253 13.995C3.25873 13.5381 1.56833 11.5585 1.56833 9.16759V9.1067C2.22312 9.47219 2.98461 9.70061 3.79166 9.73103C2.46678 8.84777 1.5988 7.34017 1.5988 5.63458C1.5988 4.72089 1.84241 3.88333 2.26883 3.15236C4.69016 6.13713 8.32977 8.08633 12.4109 8.29956C12.3348 7.93408 12.2891 7.55341 12.2891 7.17269C12.2891 4.462 14.482 2.25391 17.2079 2.25391C18.6241 2.25391 19.9033 2.84781 20.8018 3.8072C21.9134 3.59402 22.9794 3.18283 23.9236 2.61939C23.5581 3.76155 22.7815 4.72094 21.7612 5.33003C22.751 5.22348 23.7104 4.94931 24.5937 4.56864C23.9237 5.54322 23.0861 6.4112 22.1267 7.11175Z" fill="white"/>
</g>
<defs>
<clipPath id="clip0_409_1037">
<rect width="24" height="24" fill="white" transform="translate(0.59375)"/>
</clipPath>
</defs>
</svg>
