<svg width="60" height="21" viewBox="0 0 60 21" fill="none" xmlns="http://www.w3.org/2000/svg">
<g id="visa logo">
<path id="Vector" d="M21.7204 19.3373L24.5798 2.55787H29.1533L26.2918 19.3373H21.7204ZM42.8156 2.91959C41.9096 2.57964 40.4897 2.21484 38.7166 2.21484C34.1972 2.21484 31.0141 4.49064 30.9868 7.75233C30.9614 10.1634 33.2595 11.5085 34.9943 12.311C36.7747 13.1337 37.373 13.6581 37.3645 14.3924C37.3531 15.5173 35.9428 16.0309 34.6281 16.0309C32.7977 16.0309 31.8252 15.7766 30.3231 15.1503L29.7336 14.8837L29.0918 18.6398C30.1601 19.1084 32.1354 19.514 34.1865 19.5351C38.9942 19.5351 42.1153 17.2853 42.1508 13.8021C42.1678 11.8933 40.9494 10.4408 38.3107 9.24316C36.7121 8.46693 35.7331 7.94896 35.7434 7.16296C35.7434 6.4655 36.5721 5.7197 38.3629 5.7197C39.8582 5.69647 40.9418 6.02262 41.786 6.36256L42.1958 6.55619L42.8156 2.91959ZM54.585 2.55761H51.051C49.9562 2.55761 49.1368 2.85642 48.6561 3.9491L41.8637 19.3262H46.6664C46.6664 19.3262 47.4514 17.2587 47.629 16.8047C48.1538 16.8047 52.8194 16.8119 53.4864 16.8119C53.6232 17.3994 54.0429 19.3262 54.0429 19.3262H58.2867L54.585 2.5571V2.55761ZM48.9778 13.3928C49.3562 12.426 50.8001 8.70213 50.8001 8.70213C50.7732 8.74679 51.1756 7.73064 51.4064 7.10064L51.7155 8.54733C51.7155 8.54733 52.5913 12.5527 52.7744 13.3925H48.9778V13.3928ZM17.8378 2.55761L13.3602 14.0005L12.8832 11.6751C12.0495 8.9945 9.45247 6.09024 6.54907 4.63627L10.6434 19.3106L15.4824 19.3052L22.6827 2.55744L17.8378 2.55736" fill="#0E4595"/>
<path id="Vector_2" d="M9.18218 2.55713H1.80724L1.74878 2.90624C7.48641 4.29516 11.2828 7.65164 12.8591 11.6851L11.2554 3.97424C10.9787 2.91173 10.1757 2.59459 9.18235 2.55756" fill="#F2AE14"/>
</g>
</svg>
