<svg width="25" height="24" viewBox="0 0 25 24" fill="none" xmlns="http://www.w3.org/2000/svg">
<g id="youtube">
<path id="Vector" d="M23.496 6.50346C23.2343 5.51804 22.4632 4.74196 21.4842 4.47858C19.7096 4 12.5937 4 12.5937 4C12.5937 4 5.4779 4 3.70328 4.47858C2.72423 4.742 1.95315 5.51804 1.69144 6.50346C1.21594 8.28958 1.21594 12.0162 1.21594 12.0162C1.21594 12.0162 1.21594 15.7427 1.69144 17.5289C1.95315 18.5143 2.72423 19.258 3.70328 19.5214C5.4779 20 12.5937 20 12.5937 20C12.5937 20 19.7096 20 21.4842 19.5214C22.4632 19.258 23.2343 18.5143 23.496 17.5289C23.9715 15.7427 23.9715 12.0162 23.9715 12.0162C23.9715 12.0162 23.9715 8.28958 23.496 6.50346ZM10.2664 15.3996V8.63271L16.2139 12.0162L10.2664 15.3996Z" fill="white"/>
</g>
</svg>
